<?xml version="1.0" standalone="no"?>
<!DOCTYPE svg PUBLIC "-//W3C//DTD SVG 20010904//EN"
 "http://www.w3.org/TR/2001/REC-SVG-20010904/DTD/svg10.dtd">
<svg version="1.0" xmlns="http://www.w3.org/2000/svg"
 width="7704.000000pt" height="4334.000000pt" viewBox="0 0 7704.000000 4334.000000"
 preserveAspectRatio="xMidYMid meet">

<g transform="translate(0.000000,4334.000000) scale(0.100000,-0.100000)"
fill="#000000" stroke="none">
<path d="M32361 43332 c-9032 -2 -9763 -3 -9757 -18 6 -15 -24 -16 -356 -12
-200 3 -286 2 -193 -1 142 -5 170 -8 169 -21 -1 -13 24 -15 170 -15 l171 0 6
-190 c8 -209 -8 -688 -22 -693 -5 -2 -9 -39 -9 -82 0 -52 -4 -80 -12 -82 -8
-3 -12 -39 -11 -121 0 -64 -4 -117 -9 -117 -4 0 -8 36 -8 80 0 52 -4 80 -11
80 -8 0 -9 -22 -3 -77 10 -87 9 -103 -1 -325 -4 -87 -12 -158 -16 -158 -5 0
-9 -18 -9 -39 0 -22 -5 -41 -10 -43 -6 -2 -13 -55 -17 -121 -3 -64 -10 -117
-14 -117 -5 0 -9 37 -11 83 -2 45 -4 -8 -4 -118 -1 -136 -5 -200 -13 -203 -6
-2 -11 -21 -11 -43 0 -50 -18 -51 -23 -1 -2 20 -2 2 1 -40 3 -57 1 -78 -8 -78
-9 0 -10 -20 -5 -80 5 -54 4 -80 -3 -80 -6 0 -12 19 -14 43 -2 23 -4 -30 -5
-118 -1 -100 -6 -161 -13 -163 -5 -2 -10 -21 -10 -43 0 -21 -4 -39 -10 -39 -5
0 -10 18 -10 40 0 28 -4 40 -14 40 -17 0 -32 -144 -22 -225 8 -70 -3 -175 -19
-175 -8 0 -16 -40 -25 -120 -13 -121 -25 -151 -33 -82 -2 20 -3 11 -1 -20 2
-32 1 -85 -3 -118 -5 -50 -9 -60 -24 -60 -16 0 -19 -8 -19 -59 0 -136 -24
-242 -32 -138 -2 23 -3 -12 -4 -77 0 -84 -4 -121 -12 -124 -7 -2 -12 -21 -12
-43 0 -21 -4 -39 -10 -39 -5 0 -10 -18 -10 -40 0 -22 -4 -40 -10 -40 -5 0 -10
-18 -10 -40 0 -22 -4 -40 -10 -40 -6 0 -10 -33 -10 -80 0 -72 -2 -80 -19 -80
-16 0 -20 -11 -26 -80 -7 -85 -21 -105 -28 -42 -2 20 -3 11 -1 -20 2 -32 1
-85 -3 -118 -5 -48 -9 -60 -23 -60 -15 0 -19 -13 -25 -80 -8 -87 -22 -106 -28
-37 -2 23 -4 -13 -5 -80 -2 -116 -3 -123 -22 -123 -17 0 -20 -7 -20 -40 0 -28
-4 -40 -14 -40 -10 0 -16 -22 -21 -80 -4 -44 -11 -80 -16 -80 -5 0 -9 -18 -9
-40 0 -57 -27 -55 -33 3 -3 35 -4 31 -5 -18 -1 -33 -7 -106 -14 -162 -10 -89
-14 -103 -30 -103 -14 0 -18 -8 -18 -40 0 -28 -4 -40 -14 -40 -10 0 -16 -22
-21 -80 -5 -58 -11 -80 -21 -80 -9 0 -14 -12 -14 -34 0 -19 -3 -41 -6 -50 -12
-32 -24 -15 -24 34 0 28 -4 50 -10 50 -5 0 -10 -25 -10 -55 0 -30 5 -55 10
-55 6 0 10 -11 10 -25 0 -14 -4 -25 -10 -25 -5 0 -10 -18 -10 -40 0 -22 -4
-40 -10 -40 -5 0 -13 -17 -16 -39 -7 -45 -23 -73 -31 -53 -7 17 -23 15 -23 -3
0 -8 5 -15 11 -15 7 0 9 -11 5 -32 -4 -18 -9 -48 -13 -65 -3 -19 -11 -33 -19
-33 -9 0 -14 -12 -14 -37 0 -41 -18 -77 -27 -55 -7 17 -23 15 -23 -3 0 -8 5
-15 10 -15 6 0 10 -18 10 -39 0 -22 -4 -43 -10 -46 -5 -3 -10 -15 -10 -26 0
-10 -4 -19 -10 -19 -5 0 -13 -17 -16 -39 -7 -45 -23 -73 -31 -53 -7 17 -23 15
-23 -3 0 -8 5 -15 11 -15 7 0 9 -11 5 -32 -4 -18 -9 -48 -13 -65 -3 -18 -8
-33 -12 -33 -4 0 -14 -22 -21 -50 -7 -27 -17 -50 -22 -50 -4 0 -8 5 -8 10 0 6
-4 10 -10 10 -5 0 -10 -7 -10 -15 0 -8 5 -15 10 -15 6 0 10 -11 10 -25 0 -14
-4 -25 -10 -25 -5 0 -10 -18 -10 -40 0 -29 -4 -40 -15 -40 -11 0 -15 -11 -15
-40 0 -29 -4 -40 -15 -40 -11 0 -15 11 -15 40 0 23 -5 40 -11 40 -8 0 -10 -18
-6 -60 4 -33 4 -87 0 -120 -5 -50 -9 -60 -24 -60 -15 0 -19 -8 -19 -40 0 -29
-4 -40 -15 -40 -11 0 -15 -11 -15 -40 0 -29 -4 -40 -15 -40 -9 0 -17 -14 -21
-39 -7 -45 -23 -73 -31 -53 -7 17 -23 15 -23 -3 0 -8 5 -15 10 -15 6 0 10 -11
10 -25 0 -14 -4 -25 -10 -25 -5 0 -10 -16 -10 -36 0 -19 -7 -42 -15 -51 -9 -8
-19 -28 -22 -44 -7 -35 -16 -37 -31 -6 l-11 22 0 -22 c-1 -13 4 -23 10 -23 17
0 1 -68 -22 -91 -10 -10 -19 -29 -19 -41 0 -30 -19 -58 -27 -40 -7 17 -23 15
-23 -3 0 -8 5 -15 10 -15 6 0 10 -11 10 -25 0 -14 -4 -25 -10 -25 -5 0 -10
-16 -10 -36 0 -19 -7 -42 -15 -51 -9 -8 -19 -28 -22 -44 -7 -35 -16 -37 -31
-6 l-11 22 0 -22 c-1 -12 5 -23 12 -26 10 -3 10 -9 0 -26 -7 -11 -13 -28 -13
-36 0 -8 -3 -15 -8 -15 -8 0 -32 -71 -32 -95 0 -8 -4 -15 -8 -15 -12 0 -32
-62 -32 -98 0 -25 -4 -32 -20 -32 -11 0 -20 -7 -20 -15 0 -8 -4 -15 -8 -15
-11 0 -32 -61 -32 -94 0 -15 -7 -34 -15 -42 -8 -9 -18 -27 -22 -42 -3 -14 -15
-35 -25 -46 -10 -11 -18 -30 -18 -43 0 -13 -3 -23 -7 -23 -8 0 -33 -51 -69
-138 -9 -23 -23 -47 -30 -53 -7 -6 -22 -42 -34 -80 -12 -38 -25 -69 -29 -69
-11 0 -31 -47 -31 -70 0 -11 -4 -20 -8 -20 -4 0 -14 -16 -21 -35 -8 -24 -19
-35 -32 -35 -10 0 -19 5 -19 10 0 6 -9 10 -20 10 -11 0 -20 -4 -20 -10 0 -5 9
-10 20 -10 17 0 20 -7 20 -45 0 -25 -4 -45 -8 -45 -4 0 -14 -16 -21 -35 -8
-24 -19 -35 -32 -35 -10 0 -19 5 -19 10 0 6 -9 10 -20 10 -11 0 -20 -4 -20
-10 0 -5 9 -10 20 -10 17 0 20 -7 20 -45 0 -25 -4 -45 -8 -45 -4 0 -14 -16
-21 -35 -8 -24 -19 -35 -32 -35 -10 0 -19 5 -19 10 0 6 -9 10 -20 10 -11 0
-20 -4 -20 -10 0 -5 9 -10 20 -10 17 0 20 -7 20 -45 0 -25 -4 -45 -8 -45 -4 0
-14 -16 -21 -35 -8 -24 -19 -35 -32 -35 -10 0 -19 5 -19 10 0 6 -9 10 -20 10
-11 0 -20 -4 -20 -10 0 -5 9 -10 20 -10 17 0 20 -7 20 -45 0 -25 -4 -45 -8
-45 -5 0 -14 -17 -21 -38 -7 -21 -23 -42 -34 -48 -16 -6 -21 -17 -20 -37 2
-29 -6 -34 -26 -14 -11 10 -12 5 -7 -29 4 -33 2 -46 -14 -64 -11 -12 -22 -31
-25 -41 -4 -11 -11 -19 -16 -19 -5 0 -9 -8 -10 -17 0 -10 -11 -36 -24 -58 -40
-67 -75 -138 -75 -151 0 -7 -4 -14 -8 -16 -13 -5 -72 -120 -72 -140 0 -10 -4
-18 -10 -18 -12 0 -40 -29 -57 -58 -7 -12 -13 -40 -13 -62 0 -22 -4 -40 -10
-40 -16 0 -45 -33 -59 -68 -7 -18 -17 -32 -21 -32 -4 0 -13 -13 -20 -30 -7
-16 -16 -30 -21 -30 -5 0 -9 -6 -9 -13 0 -16 -30 -76 -70 -137 -15 -25 -29
-55 -29 -67 -1 -13 -5 -23 -11 -23 -16 0 -46 -34 -61 -68 -13 -30 -49 -46 -49
-22 0 6 -9 10 -20 10 -11 0 -20 -4 -20 -10 0 -5 9 -10 20 -10 15 0 20 -7 20
-29 0 -53 -23 -83 -33 -43 -3 9 -5 -7 -6 -35 -1 -52 -2 -53 -30 -53 -16 0 -31
6 -34 13 -2 7 -8 8 -13 3 -5 -5 -4 -11 4 -13 14 -6 16 -79 2 -88 -5 -3 -10
-17 -10 -31 0 -13 -4 -24 -10 -24 -16 0 -45 -33 -59 -68 -7 -18 -17 -32 -22
-32 -4 0 -11 -9 -14 -20 -3 -11 -12 -26 -18 -33 -19 -21 -37 -55 -37 -72 0 -8
-7 -15 -15 -15 -8 0 -15 -6 -15 -13 0 -8 -11 -24 -25 -37 -14 -13 -25 -34 -25
-47 0 -16 -6 -23 -20 -23 -13 0 -20 7 -20 20 0 13 -7 20 -20 20 -13 0 -20 -7
-20 -20 0 -13 7 -20 20 -20 13 0 20 -7 20 -19 0 -44 -24 -68 -33 -33 -3 9 -5
-7 -6 -35 -1 -52 -2 -53 -30 -53 -16 0 -31 6 -34 13 -2 7 -8 8 -13 3 -5 -5 -4
-11 4 -13 14 -5 17 -63 2 -63 -5 0 -10 -18 -10 -40 0 -33 -3 -40 -19 -40 -11
0 -21 -6 -24 -12 -3 -10 -8 -10 -21 2 -17 13 -18 12 -16 -20 5 -63 2 -70 -29
-70 -16 0 -31 6 -34 13 -2 7 -8 8 -13 3 -5 -5 -4 -11 4 -13 14 -5 17 -63 2
-63 -5 0 -10 -18 -10 -40 0 -32 -4 -40 -18 -40 -21 0 -62 -39 -62 -59 0 -7
-11 -22 -25 -33 -14 -11 -25 -30 -25 -44 0 -15 -6 -24 -15 -24 -8 0 -15 -6
-15 -13 0 -7 -10 -17 -23 -22 -13 -6 -22 -19 -22 -32 0 -12 -8 -30 -18 -41 -9
-10 -17 -26 -17 -35 0 -9 -4 -17 -10 -17 -17 0 -47 -36 -61 -73 -7 -20 -21
-38 -31 -40 -10 -3 -22 -16 -27 -30 -5 -14 -15 -28 -20 -32 -6 -3 -11 -19 -11
-36 0 -16 -4 -29 -10 -29 -16 0 -45 -33 -59 -68 -11 -25 -19 -32 -41 -32 -16
0 -30 6 -33 13 -2 7 -8 8 -13 3 -5 -5 -4 -11 4 -13 14 -5 17 -63 2 -63 -5 0
-10 -6 -10 -13 0 -7 -10 -17 -23 -22 -12 -6 -24 -21 -25 -35 -2 -14 -10 -29
-18 -33 -8 -4 -14 -19 -14 -32 0 -14 -4 -25 -10 -25 -16 0 -45 -33 -59 -68
-12 -30 -41 -45 -41 -22 0 15 -19 12 -36 -4 -16 -17 -19 -36 -4 -36 6 0 10 -7
10 -15 0 -8 -4 -15 -10 -15 -5 0 -10 -6 -10 -13 0 -7 -10 -17 -22 -22 -13 -6
-25 -21 -26 -35 -2 -14 -10 -29 -18 -33 -8 -4 -14 -19 -14 -32 0 -14 -4 -25
-10 -25 -15 0 -47 -35 -55 -59 -3 -12 -15 -21 -26 -21 -10 0 -19 -6 -19 -12 0
-7 -5 -20 -10 -28 -8 -13 -11 -12 -25 5 -15 20 -16 19 -14 -5 3 -54 0 -60 -30
-60 -16 0 -31 6 -34 13 -2 7 -8 8 -13 3 -5 -5 -4 -11 4 -13 16 -6 15 -63 -2
-85 -18 -24 -46 -23 -46 2 0 13 -7 20 -20 20 -13 0 -20 -7 -20 -20 0 -13 7
-20 20 -20 27 0 27 -41 0 -65 -11 -10 -20 -26 -20 -37 0 -10 -4 -18 -10 -18
-15 0 -47 -35 -55 -59 -3 -12 -15 -21 -26 -21 -10 0 -19 -6 -19 -12 0 -7 -5
-20 -10 -28 -8 -13 -11 -12 -25 5 -15 20 -16 19 -14 -5 3 -54 0 -60 -30 -60
-16 0 -31 6 -34 13 -2 7 -8 8 -13 3 -5 -5 -4 -11 4 -13 14 -5 17 -63 2 -63 -5
0 -10 -6 -10 -14 0 -7 -9 -16 -20 -19 -11 -3 -24 -16 -29 -30 -5 -14 -15 -28
-20 -32 -6 -3 -11 -19 -11 -36 0 -21 -5 -29 -18 -29 -23 0 -62 -40 -62 -63 0
-9 -6 -17 -14 -17 -8 0 -17 -8 -21 -17 -6 -17 -7 -17 -19 0 -20 26 -26 21 -26
-23 0 -28 -4 -40 -14 -40 -8 0 -17 -8 -21 -17 -6 -17 -7 -17 -19 0 -21 27 -26
21 -26 -33 0 -49 -1 -50 -29 -50 -16 0 -31 6 -34 13 -2 7 -8 8 -13 3 -5 -5 -4
-11 4 -13 16 -6 15 -51 -2 -69 -18 -17 -63 -18 -69 -1 -2 7 -8 8 -13 3 -5 -5
-4 -11 4 -13 14 -5 17 -63 2 -63 -5 0 -10 -6 -10 -14 0 -7 -8 -16 -19 -19 -10
-2 -25 -17 -32 -33 -8 -15 -27 -35 -44 -44 -18 -10 -31 -26 -33 -41 -2 -13
-10 -28 -18 -32 -8 -4 -14 -19 -14 -32 0 -18 -5 -25 -20 -25 -27 0 -60 -30
-60 -55 0 -22 -52 -54 -58 -35 -8 22 -20 8 -20 -22 -1 -27 -14 -47 -76 -111
-42 -43 -76 -83 -76 -88 0 -5 -6 -9 -14 -9 -7 0 -30 -18 -50 -40 -20 -22 -40
-40 -45 -40 -5 0 -12 -8 -16 -17 -6 -17 -7 -17 -19 0 -21 27 -26 21 -26 -33 0
-38 -4 -50 -15 -50 -8 0 -15 5 -15 10 0 15 -19 12 -36 -4 -16 -17 -19 -36 -4
-36 15 0 12 -19 -4 -36 -17 -16 -36 -19 -36 -4 0 15 -19 12 -36 -4 -16 -17
-19 -36 -4 -36 15 0 12 -19 -4 -36 -17 -16 -36 -19 -36 -4 0 15 -19 12 -36 -4
-16 -17 -19 -36 -4 -36 15 0 12 -19 -4 -36 -17 -16 -36 -19 -36 -4 0 15 -19
12 -36 -4 -16 -17 -19 -36 -4 -36 15 0 12 -19 -4 -36 -17 -16 -36 -19 -36 -4
0 15 -19 12 -36 -4 -16 -17 -19 -36 -4 -36 15 0 12 -19 -4 -36 -17 -16 -36
-19 -36 -4 0 15 -19 12 -36 -4 -16 -17 -19 -36 -4 -36 15 0 12 -19 -4 -36 -17
-16 -36 -19 -36 -4 0 15 -19 12 -36 -4 -16 -17 -19 -36 -4 -36 15 0 12 -19 -4
-36 -17 -16 -36 -19 -36 -4 0 15 -19 12 -36 -4 -16 -17 -19 -36 -4 -36 15 0
12 -19 -4 -36 -17 -16 -36 -19 -36 -4 0 15 -19 12 -36 -4 -16 -17 -19 -36 -4
-36 15 0 12 -19 -4 -36 -17 -16 -36 -19 -36 -4 0 6 -11 10 -25 10 -14 0 -25
-4 -25 -10 0 -5 11 -10 25 -10 14 0 25 -4 25 -8 0 -12 -44 -52 -57 -52 -6 0
-27 -18 -47 -40 -29 -32 -43 -40 -71 -40 -37 0 -47 -13 -18 -25 17 -6 17 -7 0
-19 -9 -7 -17 -16 -17 -20 0 -3 -18 -22 -40 -42 -22 -20 -40 -42 -40 -49 0 -9
-11 -12 -40 -8 -39 5 -56 -8 -27 -21 10 -5 10 -7 0 -12 -7 -3 -13 -14 -13 -25
0 -12 -7 -19 -18 -19 -23 0 -62 -40 -62 -63 0 -10 -8 -17 -20 -17 -28 0 -60
-30 -60 -57 0 -19 -5 -23 -29 -23 -17 0 -33 -5 -36 -11 -4 -5 -18 -15 -32 -20
-14 -5 -27 -18 -30 -29 -3 -11 -12 -20 -19 -20 -8 0 -14 -6 -14 -14 0 -7 -9
-16 -21 -19 -11 -3 -23 -15 -26 -26 -3 -12 -12 -21 -19 -21 -8 0 -14 -4 -14
-10 0 -5 -7 -10 -15 -10 -8 0 -15 5 -15 10 0 15 -19 12 -36 -4 -16 -17 -19
-36 -4 -36 16 0 11 -27 -6 -34 -8 -3 -28 -3 -42 0 -22 5 -25 4 -14 -7 18 -20
15 -39 -8 -39 -14 0 -20 -7 -20 -21 0 -17 -5 -20 -28 -16 -15 2 -21 2 -15 0
19 -6 16 -12 -19 -45 -23 -21 -42 -30 -67 -30 -21 0 -29 -3 -21 -8 21 -13 -9
-70 -37 -70 -13 0 -23 -4 -23 -10 0 -5 -15 -13 -32 -18 -19 -4 -37 -17 -43
-30 -5 -12 -15 -22 -22 -22 -7 0 -13 -4 -13 -10 0 -15 -58 -12 -63 3 -2 7 -8
8 -13 3 -5 -5 -4 -11 4 -13 16 -6 15 -51 -2 -69 -17 -16 -36 -19 -36 -4 0 15
-19 12 -36 -4 -16 -17 -19 -36 -4 -36 16 0 11 -27 -6 -34 -8 -3 -25 -4 -37 -2
-12 1 -16 1 -9 -1 6 -3 12 -7 12 -10 0 -10 -62 -63 -74 -63 -18 0 -56 -43 -56
-63 0 -12 -8 -17 -29 -17 -17 0 -33 -5 -36 -11 -4 -5 -18 -15 -32 -20 -14 -5
-27 -18 -30 -29 -3 -11 -12 -20 -19 -20 -8 0 -14 -4 -14 -10 0 -15 -58 -12
-63 3 -2 7 -8 8 -13 3 -5 -5 -4 -11 4 -13 18 -7 15 -60 -4 -67 -8 -3 -25 -4
-37 -2 -12 1 -16 1 -9 -1 6 -3 12 -7 12 -10 0 -10 -62 -63 -75 -63 -6 0 -20
-9 -30 -20 -24 -27 -65 -27 -65 0 0 13 -7 20 -20 20 -13 0 -20 -7 -20 -20 0
-13 7 -20 20 -20 13 0 20 -7 20 -20 0 -13 -7 -20 -20 -20 -11 0 -20 -4 -20
-10 0 -15 -58 -12 -63 3 -2 7 -8 8 -13 3 -5 -5 -4 -11 4 -13 6 -3 12 -17 12
-33 0 -22 -6 -30 -29 -38 -31 -11 -71 -46 -71 -62 0 -5 -9 -10 -20 -10 -12 0
-30 -9 -42 -20 -12 -11 -30 -20 -40 -20 -11 0 -18 7 -18 20 0 13 -7 20 -20 20
-13 0 -20 -7 -20 -20 0 -13 7 -20 20 -20 13 0 20 -7 20 -20 0 -13 -7 -20 -20
-20 -11 0 -20 -4 -20 -10 0 -15 -58 -12 -63 3 -2 7 -8 8 -13 3 -5 -5 -4 -11 4
-13 18 -7 15 -60 -4 -67 -8 -3 -25 -4 -37 -2 -12 1 -16 1 -10 -1 7 -3 13 -7
13 -10 0 -13 -64 -63 -81 -63 -10 0 -19 -4 -19 -10 0 -5 -15 -13 -32 -18 -19
-4 -37 -17 -43 -30 -5 -12 -15 -22 -22 -22 -7 0 -13 -7 -13 -15 0 -8 -9 -15
-21 -15 -29 0 -59 -18 -59 -35 0 -8 -8 -15 -17 -15 -26 -1 -63 -35 -63 -59 0
-17 -6 -21 -29 -21 -17 0 -33 -5 -36 -10 -9 -14 -72 -12 -78 3 -2 7 -8 8 -13
3 -5 -5 -4 -11 4 -13 6 -3 12 -17 12 -33 0 -22 -6 -30 -29 -38 -31 -11 -71
-46 -71 -62 0 -5 -11 -10 -24 -10 -14 0 -28 -4 -31 -10 -3 -5 -14 -10 -23 -10
-9 0 -34 -16 -55 -35 -21 -19 -42 -35 -46 -35 -12 0 -61 -48 -61 -60 0 -5 -11
-10 -24 -10 -14 0 -28 -4 -31 -10 -3 -5 -14 -10 -23 -10 -9 0 -34 -16 -55 -35
-21 -19 -42 -35 -46 -35 -12 0 -61 -48 -61 -60 0 -5 -13 -10 -29 -10 -17 0
-33 -4 -36 -10 -9 -14 -72 -12 -78 3 -2 7 -8 8 -13 3 -5 -5 -4 -11 4 -13 16
-6 16 -63 0 -64 -7 -1 -30 -1 -50 0 -22 2 -38 -2 -38 -8 0 -6 5 -11 10 -11 6
0 10 -4 10 -10 0 -5 -13 -10 -30 -10 -23 0 -30 4 -30 20 0 13 -7 20 -20 20
-13 0 -20 -7 -20 -20 0 -13 7 -20 20 -20 13 0 20 -7 20 -20 0 -16 -7 -20 -37
-21 -21 -1 -30 -3 -21 -6 36 -9 18 -26 -22 -20 -37 5 -56 -6 -28 -15 19 -7
-16 -38 -40 -38 -11 0 -22 -4 -24 -8 -4 -11 -113 -82 -125 -82 -14 0 -63 -47
-63 -60 0 -5 -13 -10 -29 -10 -17 0 -33 -4 -36 -10 -3 -5 -15 -10 -26 -10 -10
0 -19 5 -19 10 0 15 -19 12 -36 -4 -16 -17 -19 -36 -4 -36 6 0 10 -7 10 -15 0
-9 -9 -15 -25 -15 -22 0 -60 -15 -75 -30 -15 -15 -88 -60 -97 -60 -14 0 -63
-46 -63 -60 0 -5 -15 -10 -34 -10 -19 0 -46 -4 -60 -10 -28 -10 -66 -45 -66
-60 0 -5 -11 -10 -24 -10 -14 0 -28 -4 -31 -10 -3 -5 -14 -10 -23 -10 -9 -1
-33 -14 -52 -30 -19 -17 -40 -30 -47 -30 -12 0 -52 -19 -63 -30 -3 -3 -23 -17
-45 -31 -31 -21 -48 -26 -77 -22 -24 3 -38 1 -38 -6 0 -6 5 -11 10 -11 6 0 10
-4 10 -10 0 -5 -18 -10 -40 -10 -33 0 -40 3 -40 20 0 11 -4 20 -10 20 -5 0
-10 -9 -10 -20 0 -11 5 -20 10 -20 24 0 8 -39 -19 -48 -31 -11 -71 -46 -71
-62 0 -5 -15 -10 -34 -10 -19 0 -46 -4 -60 -10 -28 -10 -66 -45 -66 -60 0 -5
-15 -10 -34 -10 -39 0 -96 -18 -96 -31 0 -5 -7 -9 -15 -9 -8 0 -15 -9 -15 -20
0 -17 -7 -20 -40 -20 -22 0 -40 -3 -40 -7 0 -9 -49 -33 -67 -33 -7 0 -13 -9
-13 -20 0 -15 -7 -20 -24 -20 -14 0 -28 -5 -31 -10 -3 -5 -17 -10 -30 -10 -13
0 -27 -4 -30 -10 -3 -5 -15 -10 -26 -10 -12 0 -19 -7 -19 -20 0 -15 -7 -20
-24 -20 -14 0 -28 -5 -31 -10 -3 -6 -17 -7 -29 -4 -14 3 -29 -1 -39 -10 -8 -9
-20 -16 -26 -16 -6 0 -11 -9 -11 -20 0 -16 -7 -20 -34 -20 -39 0 -96 -18 -96
-31 0 -5 -7 -9 -15 -9 -8 0 -15 -9 -15 -20 0 -16 -7 -20 -34 -20 -19 0 -46 -4
-60 -10 -28 -10 -66 -45 -66 -60 0 -5 -15 -10 -34 -10 -38 0 -96 -18 -96 -30
0 -5 -25 -14 -55 -20 -33 -7 -55 -17 -55 -24 0 -12 -42 -28 -80 -30 -8 -1 -31
-13 -51 -28 -20 -16 -41 -28 -48 -28 -6 0 -21 -6 -32 -12 -17 -10 -23 -10 -26
0 -3 6 -14 12 -26 11 l-22 0 23 -11 c30 -15 28 -24 -7 -31 -16 -3 -36 -13 -44
-22 -9 -8 -25 -15 -36 -15 -11 0 -23 -5 -26 -10 -3 -6 -17 -7 -29 -4 -14 3
-29 -1 -39 -10 -8 -9 -20 -16 -26 -16 -6 0 -11 -9 -11 -20 0 -16 -7 -20 -34
-20 -39 0 -96 -18 -96 -31 0 -5 -7 -9 -15 -9 -24 0 -95 -24 -95 -32 0 -5 -7
-8 -15 -8 -8 0 -25 -6 -36 -12 -17 -10 -23 -10 -26 0 -3 6 -14 12 -26 11 l-22
0 23 -11 c30 -15 28 -24 -7 -31 -16 -3 -36 -13 -44 -22 -9 -8 -32 -15 -51 -15
-20 0 -36 -4 -36 -10 0 -5 -11 -10 -25 -10 -14 0 -25 5 -25 10 0 6 -7 10 -15
10 -8 0 -15 -4 -15 -10 0 -5 5 -10 11 -10 26 0 -13 -28 -46 -33 -19 -3 -42
-13 -51 -21 -21 -21 -67 -32 -72 -18 -2 7 -13 12 -25 11 l-22 0 23 -11 c30
-15 28 -24 -7 -31 -16 -3 -36 -13 -44 -22 -9 -8 -29 -15 -45 -15 -36 0 -92
-19 -92 -31 0 -5 -7 -9 -15 -9 -24 0 -95 -24 -95 -32 0 -5 -9 -8 -19 -8 -11 0
-23 -5 -26 -11 -4 -6 -19 -7 -35 -4 -18 4 -33 1 -43 -9 -9 -9 -20 -16 -26 -16
-6 0 -11 -9 -11 -20 0 -17 -7 -20 -40 -20 -22 0 -40 -4 -40 -10 0 -5 -18 -10
-40 -10 -22 0 -40 5 -40 10 0 6 -10 10 -22 9 l-23 0 22 -11 c31 -15 29 -24 -6
-31 -16 -3 -35 -12 -42 -20 -8 -7 -38 -16 -67 -20 -29 -3 -67 -13 -84 -22 -17
-8 -46 -15 -65 -15 -26 0 -33 -4 -33 -20 0 -17 -7 -20 -40 -20 -22 0 -40 -4
-40 -10 0 -5 -18 -10 -40 -10 -22 0 -40 -4 -40 -10 0 -5 -18 -10 -40 -10 -33
0 -40 -3 -40 -20 0 -17 -7 -20 -40 -20 -22 0 -40 -4 -40 -10 0 -5 -18 -10 -40
-10 -22 0 -40 -4 -40 -10 0 -5 -18 -10 -40 -10 -33 0 -40 -3 -40 -20 0 -17 -7
-20 -40 -20 -22 0 -40 -4 -40 -10 0 -5 -18 -10 -40 -10 -22 0 -40 -4 -40 -10
0 -5 -18 -10 -40 -10 -33 0 -40 -3 -40 -20 0 -17 -7 -20 -40 -20 -22 0 -40 -4
-40 -9 0 -5 -36 -12 -80 -16 -44 -4 -80 -11 -80 -15 0 -4 -18 -10 -40 -14 -22
-3 -40 -10 -40 -15 0 -5 -15 -11 -32 -14 -18 -4 -48 -9 -66 -13 -21 -4 -32 -2
-32 5 0 7 -21 11 -55 11 -30 0 -55 -4 -55 -10 0 -5 23 -10 51 -10 45 0 50 -2
39 -15 -7 -9 -29 -15 -51 -15 -28 0 -39 -4 -39 -15 0 -11 -11 -15 -40 -15 -22
0 -40 -4 -40 -9 0 -5 -36 -12 -80 -16 -44 -4 -80 -11 -80 -16 0 -5 -18 -9 -40
-9 -27 0 -40 -4 -40 -14 0 -14 -25 -20 -117 -32 -24 -4 -43 -10 -43 -15 0 -5
-18 -9 -40 -9 -33 0 -40 -3 -40 -20 0 -19 -7 -20 -122 -22 -68 -1 -104 -3 -80
-5 23 -2 42 -8 42 -12 0 -10 -99 -21 -181 -21 -52 0 -59 -2 -59 -20 0 -17 -7
-20 -40 -20 -22 0 -40 -4 -40 -10 0 -5 -18 -10 -40 -10 -22 0 -40 -4 -40 -10
0 -5 -18 -10 -40 -10 -22 0 -40 -4 -40 -10 0 -5 -18 -10 -40 -10 -22 0 -40 -4
-40 -10 0 -5 -18 -10 -40 -10 -22 0 -40 -4 -40 -9 0 -4 -54 -14 -120 -21 -105
-11 -120 -15 -120 -31 0 -17 -9 -19 -80 -19 -44 0 -80 -4 -80 -9 0 -5 -36 -12
-80 -16 -44 -4 -80 -11 -80 -16 0 -5 -18 -9 -40 -9 -29 0 -40 -4 -40 -15 0
-12 -16 -15 -80 -15 -44 0 -80 -4 -80 -9 0 -4 -54 -14 -120 -21 -66 -7 -120
-17 -120 -21 0 -5 -18 -9 -40 -9 -22 0 -40 -4 -40 -8 0 -5 -90 -19 -200 -32
-110 -13 -200 -27 -200 -32 0 -4 -18 -8 -40 -8 -22 0 -40 -4 -40 -9 0 -4 -54
-13 -120 -20 -66 -6 -174 -16 -240 -22 -66 -7 -120 -16 -120 -20 0 -5 -18 -9
-40 -9 -22 0 -40 -4 -40 -10 0 -6 -29 -10 -67 -10 -38 0 -115 -7 -173 -15 -58
-8 -135 -15 -172 -15 -38 0 -68 -4 -68 -8 0 -5 -53 -12 -117 -15 -64 -4 -119
-10 -122 -15 -3 -5 -149 -17 -323 -27 -175 -10 -318 -23 -318 -28 0 -5 -33 -6
-80 -2 l-80 7 0 -10171 0 -10171 38520 0 38520 0 0 21670 0 21670 -17457 -2
c-9602 -2 -21852 -4 -27222 -6z m-9755 -104 c-2 -35 -4 -114 -4 -175 -1 -66
-6 -113 -12 -113 -6 0 -9 59 -7 154 1 116 -2 157 -12 169 -11 14 -41 17 -175
20 l-161 3 187 2 187 2 -3 -62z m-341 -3006 c-13 -14 -16 13 -8 85 l8 78 3
-79 c2 -43 0 -81 -3 -84z m-4535 -10357 c0 -8 -7 -15 -15 -15 -8 0 -15 7 -15
15 0 8 7 15 15 15 8 0 15 -7 15 -15z m-1840 -2160 c0 -8 -7 -15 -15 -15 -8 0
-15 7 -15 15 0 8 7 15 15 15 8 0 15 -7 15 -15z m-80 -80 c0 -8 -7 -15 -15 -15
-8 0 -15 7 -15 15 0 8 7 15 15 15 8 0 15 -7 15 -15z m-80 -80 c0 -8 -7 -15
-15 -15 -8 0 -15 7 -15 15 0 8 7 15 15 15 8 0 15 -7 15 -15z m-80 -80 c0 -8
-7 -15 -15 -15 -8 0 -15 7 -15 15 0 8 7 15 15 15 8 0 15 -7 15 -15z m-80 -80
c0 -8 -7 -15 -15 -15 -8 0 -15 7 -15 15 0 8 7 15 15 15 8 0 15 -7 15 -15z
m-80 -80 c0 -8 -7 -15 -15 -15 -8 0 -15 7 -15 15 0 8 7 15 15 15 8 0 15 -7 15
-15z m-80 -80 c0 -8 -7 -15 -15 -15 -8 0 -15 7 -15 15 0 8 7 15 15 15 8 0 15
-7 15 -15z m-80 -80 c0 -8 -7 -15 -15 -15 -8 0 -15 7 -15 15 0 8 7 15 15 15 8
0 15 -7 15 -15z m-80 -80 c0 -8 -7 -15 -15 -15 -8 0 -15 7 -15 15 0 8 7 15 15
15 8 0 15 -7 15 -15z m-880 -800 c0 -8 -7 -15 -15 -15 -8 0 -15 7 -15 15 0 8
7 15 15 15 8 0 15 -7 15 -15z m-560 -480 c0 -8 -7 -15 -15 -15 -8 0 -15 7 -15
15 0 8 7 15 15 15 8 0 15 -7 15 -15z m-2960 -2080 c0 -8 -7 -15 -15 -15 -8 0
-15 7 -15 15 0 8 7 15 15 15 8 0 15 -7 15 -15z"/>
<path d="M22218 43318 c23 -9 352 -10 352 0 0 4 -83 7 -185 7 -101 0 -177 -3
-167 -7z"/>
<path d="M21893 43220 c0 -25 2 -35 4 -22 2 12 2 32 0 45 -2 12 -4 2 -4 -23z"/>
<path d="M22190 42980 c0 -22 5 -40 10 -40 6 0 10 18 10 40 0 22 -4 40 -10 40
-5 0 -10 -18 -10 -40z"/>
<path d="M22228 42906 c-4 -66 -5 -122 -3 -125 13 -12 15 15 13 125 l-3 119
-7 -119z"/>
<path d="M22207 42546 c3 -47 1 -81 -5 -85 -5 -3 -12 -40 -15 -81 -2 -41 -2
-58 0 -37 2 20 8 37 13 37 5 0 11 19 13 43 2 26 5 9 7 -43 l3 -85 10 79 c6 52
6 80 0 85 -6 3 -15 42 -21 86 l-11 80 6 -79z"/>
<path d="M22233 42580 c0 -25 2 -35 4 -22 2 12 2 32 0 45 -2 12 -4 2 -4 -23z"/>
<path d="M22153 42340 c0 -25 2 -35 4 -22 2 12 2 32 0 45 -2 12 -4 2 -4 -23z"/>
<path d="M22510 42340 c0 -22 -4 -40 -10 -40 -5 0 -10 -18 -10 -40 0 -29 4
-40 15 -40 12 0 15 16 15 80 0 44 -2 80 -5 80 -3 0 -5 -18 -5 -40z"/>
<path d="M21813 42180 c0 -25 2 -35 4 -22 2 12 2 32 0 45 -2 12 -4 2 -4 -23z"/>
<path d="M22110 42020 c0 -22 5 -40 10 -40 6 0 10 18 10 40 0 22 -4 40 -10 40
-5 0 -10 -18 -10 -40z"/>
<path d="M22153 42020 c0 -25 2 -35 4 -22 2 12 2 32 0 45 -2 12 -4 2 -4 -23z"/>
<path d="M22131 41738 c2 -78 2 -80 9 -33 12 72 11 115 0 115 -6 0 -9 -33 -9
-82z"/>
<path d="M22100 41620 c0 -22 5 -40 10 -40 6 0 10 18 10 40 0 22 -4 40 -10 40
-5 0 -10 -18 -10 -40z"/>
<path d="M22147 41587 c-8 -72 -5 -99 8 -85 3 3 5 41 3 84 l-3 79 -8 -78z"/>
<path d="M22410 41540 c0 -29 4 -40 15 -40 11 0 15 11 15 40 0 29 -4 40 -15
40 -11 0 -15 -11 -15 -40z"/>
<path d="M22073 41300 c0 -25 2 -35 4 -22 2 12 2 32 0 45 -2 12 -4 2 -4 -23z"/>
<path d="M22057 41113 c-4 -38 -2 -93 3 -123 8 -48 8 -45 3 28 -3 56 -2 82 6
82 6 0 11 17 11 40 0 65 -17 45 -23 -27z"/>
<path d="M21993 40980 c0 -25 2 -35 4 -22 2 12 2 32 0 45 -2 12 -4 2 -4 -23z"/>
<path d="M22023 40980 c0 -25 2 -35 4 -22 2 12 2 32 0 45 -2 12 -4 2 -4 -23z"/>
<path d="M21993 40740 c0 -25 2 -35 4 -22 2 12 2 32 0 45 -2 12 -4 2 -4 -23z"/>
<path d="M21973 40580 c0 -25 2 -35 4 -22 2 12 2 32 0 45 -2 12 -4 2 -4 -23z"/>
<path d="M21940 40500 c0 -22 5 -40 10 -40 6 0 10 18 10 40 0 22 -4 40 -10 40
-5 0 -10 -18 -10 -40z"/>
<path d="M21993 40500 c0 -25 2 -35 4 -22 2 12 2 32 0 45 -2 12 -4 2 -4 -23z"/>
<path d="M21913 40260 c0 -25 2 -35 4 -22 2 12 2 32 0 45 -2 12 -4 2 -4 -23z"/>
<path d="M21890 40100 c0 -22 -4 -40 -10 -40 -5 0 -10 -18 -10 -40 0 -29 4
-40 15 -40 12 0 15 16 15 80 0 44 -2 80 -5 80 -3 0 -5 -18 -5 -40z"/>
<path d="M21833 39860 c0 -25 2 -35 4 -22 2 12 2 32 0 45 -2 12 -4 2 -4 -23z"/>
<path d="M21810 39700 c0 -22 -4 -40 -10 -40 -5 0 -10 -18 -10 -40 0 -29 4
-40 15 -40 12 0 15 16 15 80 0 44 -2 80 -5 80 -3 0 -5 -18 -5 -40z"/>
<path d="M21753 39620 c0 -25 2 -35 4 -22 2 12 2 32 0 45 -2 12 -4 2 -4 -23z"/>
<path d="M21753 39460 c0 -25 2 -35 4 -22 2 12 2 32 0 45 -2 12 -4 2 -4 -23z"/>
<path d="M21710 39300 c0 -29 4 -40 15 -40 11 0 15 11 15 40 0 29 -4 40 -15
40 -11 0 -15 -11 -15 -40z"/>
<path d="M22023 39220 c0 -25 2 -35 4 -22 2 12 2 32 0 45 -2 12 -4 2 -4 -23z"/>
<path d="M21650 38980 c0 -22 -4 -40 -10 -40 -5 0 -10 -18 -10 -40 0 -29 4
-40 15 -40 12 0 15 16 15 80 0 44 -2 80 -5 80 -3 0 -5 -18 -5 -40z"/>
<path d="M21550 38765 c0 -8 5 -15 10 -15 6 0 10 7 10 15 0 8 -4 15 -10 15 -5
0 -10 -7 -10 -15z"/>
<path d="M21593 38740 c0 -25 2 -35 4 -22 2 12 2 32 0 45 -2 12 -4 2 -4 -23z"/>
<path d="M21520 38716 c0 -9 5 -16 10 -16 6 0 10 4 10 9 0 6 -4 13 -10 16 -5
3 -10 -1 -10 -9z"/>
<path d="M21568 38650 c-5 -30 -11 -67 -14 -82 -8 -35 11 -38 20 -3 4 14 11
25 16 25 6 0 10 7 10 15 0 8 -4 15 -9 15 -6 0 -11 19 -13 43 l-3 42 -7 -55z"/>
<path d="M21462 38448 c6 -18 28 -21 28 -4 0 9 -7 16 -16 16 -9 0 -14 -5 -12
-12z"/>
<path d="M21493 38340 c0 -25 2 -35 4 -22 2 12 2 32 0 45 -2 12 -4 2 -4 -23z"/>
<path d="M21428 38173 c-3 -27 -1 -55 3 -63 5 -9 9 10 9 48 0 74 -6 81 -12 15z"/>
<path d="M21361 38074 c0 -11 3 -14 6 -6 3 7 2 16 -1 19 -3 4 -6 -2 -5 -13z"/>
<path d="M21390 38020 c0 -29 4 -40 15 -40 11 0 15 11 15 40 0 29 -4 40 -15
40 -11 0 -15 -11 -15 -40z"/>
<path d="M21353 37860 c0 -25 2 -35 4 -22 2 12 2 32 0 45 -2 12 -4 2 -4 -23z"/>
<path d="M21333 37780 c0 -25 2 -35 4 -22 2 12 2 32 0 45 -2 12 -4 2 -4 -23z"/>
<path d="M21250 37651 c0 -5 6 -11 12 -13 10 -4 10 -10 1 -29 -8 -19 -8 -31 3
-50 12 -22 13 -20 14 39 0 49 -3 62 -15 62 -8 0 -15 -4 -15 -9z"/>
<path d="M21188 37454 c-2 -25 0 -48 4 -50 5 -3 8 18 8 45 0 64 -7 66 -12 5z"/>
<path d="M21220 37460 c0 -22 5 -40 10 -40 6 0 10 18 10 40 0 22 -4 40 -10 40
-5 0 -10 -18 -10 -40z"/>
<path d="M21273 37460 c0 -25 2 -35 4 -22 2 12 2 32 0 45 -2 12 -4 2 -4 -23z"/>
<path d="M21150 37344 c0 -8 5 -12 10 -9 6 4 8 11 5 16 -9 14 -15 11 -15 -7z"/>
<path d="M21121 37274 c0 -11 3 -14 6 -6 3 7 2 16 -1 19 -3 4 -6 -2 -5 -13z"/>
<path d="M21150 37220 c0 -29 4 -40 15 -40 11 0 15 11 15 40 0 29 -4 40 -15
40 -11 0 -15 -11 -15 -40z"/>
<path d="M21105 37170 c3 -5 8 -10 11 -10 2 0 4 5 4 10 0 6 -5 10 -11 10 -5 0
-7 -4 -4 -10z"/>
<path d="M21440 37159 c0 -11 5 -17 10 -14 6 3 10 13 10 21 0 8 -4 14 -10 14
-5 0 -10 -9 -10 -21z"/>
<path d="M21066 37104 c-7 -18 0 -34 15 -34 12 0 12 37 0 44 -5 3 -12 -1 -15
-10z"/>
<path d="M21093 36980 c0 -25 2 -35 4 -22 2 12 2 32 0 45 -2 12 -4 2 -4 -23z"/>
<path d="M20990 36860 c0 -16 4 -30 9 -30 10 0 22 40 15 52 -11 18 -24 6 -24
-22z"/>
<path d="M20960 36796 c0 -9 5 -16 10 -16 6 0 10 4 10 9 0 6 -4 13 -10 16 -5
3 -10 -1 -10 -9z"/>
<path d="M21002 36790 c-18 -29 -16 -90 3 -90 10 0 15 10 15 33 0 17 3 42 6
55 8 27 -7 29 -24 2z"/>
<path d="M20945 36690 c3 -5 8 -10 11 -10 2 0 4 5 4 10 0 6 -5 10 -11 10 -5 0
-7 -4 -4 -10z"/>
<path d="M21280 36679 c0 -11 5 -17 10 -14 6 3 10 13 10 21 0 8 -4 14 -10 14
-5 0 -10 -9 -10 -21z"/>
<path d="M20910 36624 c0 -8 5 -12 10 -9 6 4 8 11 5 16 -9 14 -15 11 -15 -7z"/>
<path d="M20938 36559 c-21 -34 -34 -99 -19 -99 6 0 11 6 11 14 0 8 7 22 16
30 9 10 14 29 12 48 l-3 32 -17 -25z"/>
<path d="M20881 36554 c0 -11 3 -14 6 -6 3 7 2 16 -1 19 -3 4 -6 -2 -5 -13z"/>
<path d="M20850 36450 c0 -5 4 -10 9 -10 6 0 13 5 16 10 3 6 -1 10 -9 10 -9 0
-16 -4 -16 -10z"/>
<path d="M21202 36440 c0 -14 2 -19 5 -12 2 6 2 18 0 25 -3 6 -5 1 -5 -13z"/>
<path d="M20866 36384 c-3 -9 -2 -23 4 -32 7 -14 9 -10 10 16 0 35 -5 41 -14
16z"/>
<path d="M20801 36314 c0 -11 3 -14 6 -6 3 7 2 16 -1 19 -3 4 -6 -2 -5 -13z"/>
<path d="M20836 36269 c-8 -42 -8 -49 3 -49 5 0 12 11 15 25 4 14 11 25 16 25
6 0 10 7 10 15 0 8 -8 15 -19 15 -13 0 -20 -10 -25 -31z"/>
<path d="M20792 36199 c-1 -14 -9 -34 -17 -45 -17 -22 -20 -54 -5 -54 16 0 31
50 27 89 -2 25 -4 28 -5 10z"/>
<path d="M20791 36074 c0 -11 3 -14 6 -6 3 7 2 16 -1 19 -3 4 -6 -2 -5 -13z"/>
<path d="M20706 36064 c-3 -9 -2 -23 4 -32 7 -14 9 -10 10 16 0 35 -5 41 -14
16z"/>
<path d="M20670 35965 c0 -8 5 -15 10 -15 6 0 10 7 10 15 0 8 -4 15 -10 15 -5
0 -10 -7 -10 -15z"/>
<path d="M20697 35923 c-10 -34 -24 -67 -32 -73 -22 -18 -18 -30 10 -30 22 0
25 4 25 39 0 22 5 41 11 43 6 2 9 21 7 42 l-3 39 -18 -60z"/>
<path d="M20640 35916 c0 -9 5 -16 10 -16 6 0 10 4 10 9 0 6 -4 13 -10 16 -5
3 -10 -1 -10 -9z"/>
<path d="M20610 35810 c0 -5 4 -10 9 -10 6 0 13 5 16 10 3 6 -1 10 -9 10 -9 0
-16 -4 -16 -10z"/>
<path d="M20960 35799 c0 -11 5 -17 10 -14 6 3 10 13 10 21 0 8 -4 14 -10 14
-5 0 -10 -9 -10 -21z"/>
<path d="M20626 35726 c-4 -19 -13 -37 -21 -40 -24 -9 -17 -26 10 -26 23 0 25
3 25 50 0 58 -5 64 -14 16z"/>
<path d="M20540 35653 c0 -5 5 -15 10 -23 8 -12 10 -11 10 8 0 12 -4 22 -10
22 -5 0 -10 -3 -10 -7z"/>
<path d="M20510 35564 c0 -17 22 -14 28 4 2 7 -3 12 -12 12 -9 0 -16 -7 -16
-16z"/>
<path d="M20552 35555 c0 -16 2 -22 5 -12 2 9 2 23 0 30 -3 6 -5 -1 -5 -18z"/>
<path d="M20480 35510 c0 -5 5 -10 11 -10 5 0 7 5 4 10 -3 6 -8 10 -11 10 -2
0 -4 -4 -4 -10z"/>
<path d="M20523 35505 c-19 -21 -17 -85 2 -85 10 0 15 10 15 34 0 19 3 41 6
50 8 20 -7 20 -23 1z"/>
<path d="M20450 35410 c0 -5 4 -10 9 -10 6 0 13 5 16 10 3 6 -1 10 -9 10 -9 0
-16 -4 -16 -10z"/>
<path d="M20800 35399 c0 -11 5 -17 10 -14 6 3 10 13 10 21 0 8 -4 14 -10 14
-5 0 -10 -9 -10 -21z"/>
<path d="M20469 35368 c-1 -2 -2 -18 -4 -37 -2 -19 -10 -38 -19 -43 -24 -13
-19 -28 9 -28 24 0 25 3 25 55 0 45 -5 67 -11 53z"/>
<path d="M20392 35260 c0 -14 2 -19 5 -12 2 6 2 18 0 25 -3 6 -5 1 -5 -13z"/>
<path d="M20350 35165 c0 -8 5 -15 10 -15 6 0 10 7 10 15 0 8 -4 15 -10 15 -5
0 -10 -7 -10 -15z"/>
<path d="M20391 35164 c0 -11 3 -14 6 -6 3 7 2 16 -1 19 -3 4 -6 -2 -5 -13z"/>
<path d="M20320 35116 c0 -9 5 -16 10 -16 6 0 10 4 10 9 0 6 -4 13 -10 16 -5
3 -10 -1 -10 -9z"/>
<path d="M20364 35103 c4 -12 -1 -30 -14 -46 -26 -33 -25 -37 5 -37 23 0 25 4
25 40 0 22 0 43 1 47 0 4 -5 9 -11 11 -8 3 -10 -3 -6 -15z"/>
<path d="M20300 35040 c-7 -12 -7 -20 -1 -20 5 0 12 -12 14 -27 2 -17 5 -10 6
20 1 52 -3 57 -19 27z"/>
<path d="M20642 35000 c0 -14 2 -19 5 -12 2 6 2 18 0 25 -3 6 -5 1 -5 -13z"/>
<path d="M20290 34950 c0 -5 5 -10 10 -10 6 0 10 5 10 10 0 6 -4 10 -10 10 -5
0 -10 -4 -10 -10z"/>
<path d="M20276 34885 c-9 -24 -8 -25 20 -25 19 0 25 5 22 17 -4 23 -34 28
-42 8z"/>
<path d="M20220 34860 c-8 -5 -11 -12 -7 -16 4 -4 13 -2 19 4 15 15 7 24 -12
12z"/>
<path d="M20226 34801 c-4 -7 -5 -15 -2 -18 9 -9 19 4 14 18 -4 11 -6 11 -12
0z"/>
<path d="M19832 34760 c0 -14 2 -19 5 -12 2 6 2 18 0 25 -3 6 -5 1 -5 -13z"/>
<path d="M20197 34734 c-14 -15 -6 -34 14 -34 14 0 19 5 17 17 -3 18 -20 27
-31 17z"/>
<path d="M20116 34623 c-6 -14 -5 -15 5 -6 7 7 10 15 7 18 -3 3 -9 -2 -12 -12z"/>
<path d="M20151 34604 c0 -11 3 -14 6 -6 3 7 2 16 -1 19 -3 4 -6 -2 -5 -13z"/>
<path d="M20480 34563 c0 -13 5 -23 10 -23 13 0 13 11 0 30 -8 12 -10 11 -10
-7z"/>
<path d="M20080 34558 c0 -9 -5 -18 -12 -20 -8 -3 -8 -9 -1 -22 9 -16 11 -14
17 14 3 18 4 35 1 38 -3 3 -5 -2 -5 -10z"/>
<path d="M20115 34550 c-3 -5 3 -10 15 -10 12 0 18 5 15 10 -3 6 -10 10 -15
10 -5 0 -12 -4 -15 -10z"/>
<path d="M20071 34444 c0 -11 3 -14 6 -6 3 7 2 16 -1 19 -3 4 -6 -2 -5 -13z"/>
<path d="M20400 34420 c0 -22 5 -40 10 -40 6 0 10 18 10 40 0 22 -4 40 -10 40
-5 0 -10 -18 -10 -40z"/>
<path d="M20000 34398 c0 -9 -5 -18 -12 -20 -8 -3 -8 -9 -1 -22 9 -16 11 -14
17 14 3 18 4 35 1 38 -3 3 -5 -2 -5 -10z"/>
<path d="M20040 34382 c0 -11 -3 -34 -6 -51 -4 -20 -3 -31 5 -31 6 0 11 6 11
14 0 8 8 22 17 31 12 13 14 21 7 33 -16 24 -34 26 -34 4z"/>
<path d="M19950 34284 c0 -9 5 -14 12 -12 18 6 21 28 4 28 -9 0 -16 -7 -16
-16z"/>
<path d="M20320 34260 c0 -22 5 -40 10 -40 6 0 10 18 10 40 0 22 -4 40 -10 40
-5 0 -10 -18 -10 -40z"/>
<path d="M19969 34243 c0 -5 -2 -18 -3 -30 -2 -13 -10 -31 -19 -41 -23 -25
-21 -32 8 -32 20 0 25 5 25 24 0 13 5 26 11 28 12 4 1 58 -12 58 -5 0 -9 -3
-10 -7z"/>
<path d="M19920 34230 c0 -5 5 -10 11 -10 5 0 7 5 4 10 -3 6 -8 10 -11 10 -2
0 -4 -4 -4 -10z"/>
<path d="M19870 34124 c0 -9 5 -14 12 -12 18 6 21 28 4 28 -9 0 -16 -7 -16
-16z"/>
<path d="M19912 34115 c0 -16 2 -22 5 -12 2 9 2 23 0 30 -3 6 -5 -1 -5 -18z"/>
<path d="M20242 34120 c0 -14 2 -19 5 -12 2 6 2 18 0 25 -3 6 -5 1 -5 -13z"/>
<path d="M19840 34070 c0 -5 5 -10 11 -10 5 0 7 5 4 10 -3 6 -8 10 -11 10 -2
0 -4 -4 -4 -10z"/>
<path d="M19890 34061 c0 -10 -9 -30 -20 -44 -26 -33 -25 -37 5 -37 20 0 25 5
25 24 0 13 5 26 11 28 7 2 9 13 5 26 -9 27 -26 29 -26 3z"/>
<path d="M19790 33964 c0 -9 5 -14 12 -12 18 6 21 28 4 28 -9 0 -16 -7 -16
-16z"/>
<path d="M19832 33955 c0 -16 2 -22 5 -12 2 9 2 23 0 30 -3 6 -5 -1 -5 -18z"/>
<path d="M19760 33910 c0 -5 5 -10 11 -10 5 0 7 5 4 10 -3 6 -8 10 -11 10 -2
0 -4 -4 -4 -10z"/>
<path d="M19810 33901 c0 -10 -9 -30 -20 -44 -26 -33 -25 -37 5 -37 20 0 25 5
25 24 0 13 5 26 11 28 7 2 9 13 5 26 -9 27 -26 29 -26 3z"/>
<path d="M19710 33804 c0 -9 5 -14 12 -12 18 6 21 28 4 28 -9 0 -16 -7 -16
-16z"/>
<path d="M19752 33795 c0 -16 2 -22 5 -12 2 9 2 23 0 30 -3 6 -5 -1 -5 -18z"/>
<path d="M19680 33750 c0 -5 5 -10 11 -10 5 0 7 5 4 10 -3 6 -8 10 -11 10 -2
0 -4 -4 -4 -10z"/>
<path d="M19730 33741 c0 -10 -9 -30 -20 -44 -26 -33 -25 -37 5 -37 20 0 25 5
25 24 0 13 5 26 11 28 7 2 9 13 5 26 -9 27 -26 29 -26 3z"/>
<path d="M19630 33644 c0 -9 5 -14 12 -12 18 6 21 28 4 28 -9 0 -16 -7 -16
-16z"/>
<path d="M19672 33635 c0 -16 2 -22 5 -12 2 9 2 23 0 30 -3 6 -5 -1 -5 -18z"/>
<path d="M19600 33590 c0 -5 5 -10 11 -10 5 0 7 5 4 10 -3 6 -8 10 -11 10 -2
0 -4 -4 -4 -10z"/>
<path d="M19650 33581 c0 -10 -9 -30 -20 -44 -26 -33 -25 -37 5 -37 20 0 25 5
25 24 0 13 5 26 11 28 7 2 9 13 5 26 -9 27 -26 29 -26 3z"/>
<path d="M19550 33484 c0 -9 5 -14 12 -12 18 6 21 28 4 28 -9 0 -16 -7 -16
-16z"/>
<path d="M19569 33443 c0 -5 -2 -18 -3 -30 -2 -13 -10 -31 -19 -41 -23 -25
-21 -32 8 -32 20 0 25 5 25 24 0 13 5 26 11 28 12 4 1 58 -12 58 -5 0 -9 -3
-10 -7z"/>
<path d="M19512 33424 c-9 -10 -10 -19 -3 -32 9 -15 10 -15 11 5 0 12 5 23 12
25 7 3 8 7 3 10 -6 3 -16 0 -23 -8z"/>
<path d="M19470 33324 c0 -9 5 -14 12 -12 18 6 21 28 4 28 -9 0 -16 -7 -16
-16z"/>
<path d="M19511 33324 c0 -11 3 -14 6 -6 3 7 2 16 -1 19 -3 4 -6 -2 -5 -13z"/>
<path d="M19436 33264 c-8 -22 -4 -25 11 -9 7 8 9 16 4 19 -5 3 -12 -1 -15
-10z"/>
<path d="M19485 33258 c4 -13 13 -30 21 -38 12 -12 14 -11 14 11 0 25 -16 49
-33 49 -4 0 -5 -10 -2 -22z"/>
<path d="M19431 33164 c0 -11 3 -14 6 -6 3 7 2 16 -1 19 -3 4 -6 -2 -5 -13z"/>
<path d="M19762 33160 c0 -14 2 -19 5 -12 2 6 2 18 0 25 -3 6 -5 1 -5 -13z"/>
<path d="M19360 33118 c0 -9 -6 -18 -12 -21 -10 -3 -10 -8 -2 -16 9 -10 13 -6
18 14 4 15 5 30 1 33 -3 3 -5 -2 -5 -10z"/>
<path d="M19400 33110 c0 -5 7 -10 16 -10 8 0 12 5 9 10 -3 6 -10 10 -16 10
-5 0 -9 -4 -9 -10z"/>
<path d="M19344 32996 c-3 -14 -12 -27 -20 -30 -23 -9 -16 -26 11 -26 23 0 25
4 25 40 0 45 -7 52 -16 16z"/>
<path d="M19680 32980 c0 -22 5 -40 10 -40 6 0 10 18 10 40 0 22 -4 40 -10 40
-5 0 -10 -18 -10 -40z"/>
<path d="M19271 32956 c-8 -9 -10 -23 -6 -33 6 -16 8 -15 16 6 13 32 7 47 -10
27z"/>
<path d="M19230 32875 c0 -8 5 -15 10 -15 6 0 10 7 10 15 0 8 -4 15 -10 15 -5
0 -10 -7 -10 -15z"/>
<path d="M19236 32805 c-9 -24 -8 -25 20 -25 19 0 25 5 22 17 -4 23 -34 28
-42 8z"/>
<path d="M19185 32791 c-3 -5 -1 -12 5 -16 5 -3 10 1 10 9 0 18 -6 21 -15 7z"/>
<path d="M19157 32754 c-4 -4 -7 -14 -7 -23 0 -11 3 -12 11 -4 6 6 10 16 7 23
-2 6 -7 8 -11 4z"/>
<path d="M19174 32693 c-10 -15 -28 -39 -41 -53 l-23 -26 35 4 c33 4 35 6 35
42 0 22 5 40 13 43 6 2 9 8 5 11 -3 4 -14 -5 -24 -21z"/>
<path d="M19070 32604 c0 -9 5 -14 12 -12 18 6 21 28 4 28 -9 0 -16 -7 -16
-16z"/>
<path d="M19089 32558 c-3 -25 3 -43 17 -58 12 -12 14 -12 14 5 0 31 -11 65
-21 65 -5 0 -10 -6 -10 -12z"/>
<path d="M19040 32550 c0 -5 5 -10 11 -10 5 0 7 5 4 10 -3 6 -8 10 -11 10 -2
0 -4 -4 -4 -10z"/>
<path d="M18995 32469 c-9 -14 -2 -20 14 -10 8 6 9 11 3 15 -6 3 -14 1 -17 -5z"/>
<path d="M19031 32444 c0 -11 3 -14 6 -6 3 7 2 16 -1 19 -3 4 -6 -2 -5 -13z"/>
<path d="M19362 32440 c0 -14 2 -19 5 -12 2 6 2 18 0 25 -3 6 -5 1 -5 -13z"/>
<path d="M18946 32391 c-11 -12 -16 -24 -12 -28 9 -9 39 22 34 37 -2 7 -10 4
-22 -9z"/>
<path d="M18995 32390 c-3 -5 3 -10 15 -10 12 0 18 5 15 10 -3 6 -10 10 -15
10 -5 0 -12 -4 -15 -10z"/>
<path d="M19280 32260 c0 -22 5 -40 10 -40 6 0 10 18 10 40 0 22 -4 40 -10 40
-5 0 -10 -18 -10 -40z"/>
<path d="M18910 32235 c-10 -12 -10 -15 4 -15 9 0 16 7 16 15 0 8 -2 15 -4 15
-2 0 -9 -7 -16 -15z"/>
<path d="M18853 32226 c-22 -10 -32 -36 -15 -36 8 0 46 41 40 44 -2 1 -13 -3
-25 -8z"/>
<path d="M18800 32150 c0 -5 5 -10 11 -10 5 0 7 5 4 10 -3 6 -8 10 -11 10 -2
0 -4 -4 -4 -10z"/>
<path d="M18868 32147 c-5 -10 -8 -30 -8 -43 0 -20 -5 -24 -29 -24 -21 0 -32
-6 -36 -21 -4 -11 -4 -23 -1 -26 3 -4 6 1 6 10 0 12 8 17 26 17 38 0 56 23 52
67 -2 28 -5 33 -10 20z"/>
<path d="M18755 32069 c-9 -14 -2 -20 14 -10 8 6 9 11 3 15 -6 3 -14 1 -17 -5z"/>
<path d="M18706 31991 c-11 -12 -16 -24 -12 -28 9 -9 39 22 34 37 -2 7 -10 4
-22 -9z"/>
<path d="M18755 31990 c-3 -5 3 -10 15 -10 12 0 18 5 15 10 -3 6 -10 10 -15
10 -5 0 -12 -4 -15 -10z"/>
<path d="M18681 31875 c-17 -25 -31 -48 -31 -51 0 -2 11 -4 25 -4 22 0 25 4
25 39 0 22 5 41 13 44 6 2 9 7 6 11 -4 4 -21 -14 -38 -39z"/>
<path d="M18590 31805 c0 -8 5 -15 10 -15 6 0 10 7 10 15 0 8 -4 15 -10 15 -5
0 -10 -7 -10 -15z"/>
<path d="M18631 31804 c0 -11 3 -14 6 -6 3 7 2 16 -1 19 -3 4 -6 -2 -5 -13z"/>
<path d="M18560 31758 c0 -9 -6 -18 -12 -21 -10 -4 -10 -7 0 -18 10 -11 12
-10 12 3 0 9 6 18 13 21 10 4 10 7 0 18 -11 11 -13 10 -13 -3z"/>
<path d="M18600 31750 c0 -5 7 -10 16 -10 8 0 12 5 9 10 -3 6 -10 10 -16 10
-5 0 -9 -4 -9 -10z"/>
<path d="M18510 31675 c0 -8 5 -15 10 -15 6 0 10 7 10 15 0 8 -4 15 -10 15 -5
0 -10 -7 -10 -15z"/>
<path d="M18882 31640 c0 -14 2 -19 5 -12 2 6 2 18 0 25 -3 6 -5 1 -5 -13z"/>
<path d="M18453 31586 c-13 -6 -23 -16 -23 -23 0 -17 17 -16 27 1 4 8 17 16
28 18 15 3 16 5 5 9 -8 3 -25 0 -37 -5z"/>
<path d="M18471 31534 c0 -11 3 -14 6 -6 3 7 2 16 -1 19 -3 4 -6 -2 -5 -13z"/>
<path d="M18400 31510 c0 -5 5 -10 11 -10 5 0 7 5 4 10 -3 6 -8 10 -11 10 -2
0 -4 -4 -4 -10z"/>
<path d="M18460 31470 c0 -26 -3 -30 -29 -30 -23 0 -31 -6 -42 -32 -7 -18 -19
-37 -26 -41 -21 -13 -15 -27 12 -27 23 0 25 4 25 40 0 36 2 40 26 40 14 0 32
6 40 14 16 17 19 66 4 66 -5 0 -10 -13 -10 -30z"/>
<path d="M18355 31430 c-3 -5 1 -10 10 -10 9 0 13 5 10 10 -3 6 -8 10 -10 10
-2 0 -7 -4 -10 -10z"/>
<path d="M18305 31350 c-3 -5 -1 -10 4 -10 6 0 11 5 11 10 0 6 -2 10 -4 10 -3
0 -8 -4 -11 -10z"/>
<path d="M18305 31280 c-5 -8 -8 -29 -6 -47 2 -30 0 -33 -27 -33 -24 0 -32 -6
-43 -32 -7 -18 -19 -37 -26 -41 -21 -13 -15 -27 12 -27 23 0 25 4 25 40 0 36
2 40 26 40 39 0 56 23 52 72 -2 32 -5 39 -13 28z"/>
<path d="M18195 31190 c-3 -5 1 -10 10 -10 9 0 13 5 10 10 -3 6 -8 10 -10 10
-2 0 -7 -4 -10 -10z"/>
<path d="M18145 31110 c-3 -5 -1 -10 4 -10 6 0 11 5 11 10 0 6 -2 10 -4 10 -3
0 -8 -4 -11 -10z"/>
<path d="M18145 31040 c-5 -8 -8 -29 -6 -47 2 -31 0 -33 -28 -33 -17 0 -31 -4
-31 -10 0 -15 50 -12 66 5 10 10 14 29 12 57 -2 32 -5 39 -13 28z"/>
<path d="M17985 30870 c-4 -6 3 -10 14 -10 25 0 27 6 6 13 -8 4 -17 2 -20 -3z"/>
<path d="M17980 30800 c-9 -16 -8 -20 5 -20 8 0 15 9 15 20 0 11 -2 20 -5 20
-2 0 -9 -9 -15 -20z"/>
<path d="M17920 30798 c0 -9 -6 -18 -12 -21 -10 -4 -10 -7 0 -18 10 -11 12
-10 12 3 0 9 6 18 13 21 10 4 10 7 0 18 -11 11 -13 10 -13 -3z"/>
<path d="M17870 30715 c0 -8 5 -15 10 -15 6 0 10 7 10 15 0 8 -4 15 -10 15 -5
0 -10 -7 -10 -15z"/>
<path d="M17900 30670 c0 -26 -3 -30 -29 -30 -27 0 -50 -24 -36 -38 3 -3 5 0
5 6 0 7 12 12 26 12 14 0 32 6 40 14 16 17 19 66 4 66 -5 0 -10 -13 -10 -30z"/>
<path d="M17795 30629 c-9 -14 -2 -20 14 -10 8 6 9 11 3 15 -6 3 -14 1 -17 -5z"/>
<path d="M17802 30560 c-10 -16 -10 -20 1 -20 7 0 13 9 14 20 1 11 1 20 0 20
-1 0 -8 -9 -15 -20z"/>
<path d="M17750 30555 c-10 -12 -10 -15 4 -15 9 0 16 7 16 15 0 8 -2 15 -4 15
-2 0 -9 -7 -16 -15z"/>
<path d="M17345 30470 c-3 -5 -1 -10 4 -10 6 0 11 5 11 10 0 6 -2 10 -4 10 -3
0 -8 -4 -11 -10z"/>
<path d="M17748 30474 c-5 -4 -8 -22 -8 -41 0 -30 -3 -33 -29 -33 -16 0 -31
-6 -34 -12 -3 -10 -8 -10 -16 -2 -15 14 -61 -4 -61 -23 0 -17 5 -16 25 4 14
13 21 14 36 5 12 -8 19 -8 19 -2 0 5 12 10 26 10 37 0 56 24 52 66 -2 20 -6
32 -10 28z"/>
<path d="M17196 30383 c-6 -14 -5 -15 5 -6 7 7 10 15 7 18 -3 3 -9 -2 -12 -12z"/>
<path d="M17587 30313 c-3 -5 -1 -17 4 -28 6 -17 8 -17 8 -2 1 9 6 17 12 17 5
0 7 5 4 10 -7 12 -22 13 -28 3z"/>
<path d="M17191 30294 c0 -11 3 -14 6 -6 3 7 2 16 -1 19 -3 4 -6 -2 -5 -13z"/>
<path d="M17517 30231 c-3 -14 -1 -18 9 -14 16 6 18 19 5 27 -5 3 -11 -3 -14
-13z"/>
<path d="M17560 30230 c0 -5 7 -10 16 -10 8 0 12 5 9 10 -3 6 -10 10 -16 10
-5 0 -9 -4 -9 -10z"/>
<path d="M17477 30194 c-4 -4 -7 -14 -7 -23 0 -11 3 -12 11 -4 6 6 10 16 7 23
-2 6 -7 8 -11 4z"/>
<path d="M17105 30150 c-3 -5 -1 -10 4 -10 6 0 11 5 11 10 0 6 -2 10 -4 10 -3
0 -8 -4 -11 -10z"/>
<path d="M17508 30154 c-5 -4 -8 -22 -8 -41 0 -30 -3 -33 -29 -33 -16 0 -31
-6 -34 -12 -3 -10 -8 -10 -16 -2 -15 14 -61 -4 -61 -23 0 -17 5 -16 25 4 14
13 21 14 36 5 12 -8 19 -8 19 -2 0 5 12 10 26 10 37 0 56 24 52 66 -2 20 -6
32 -10 28z"/>
<path d="M17347 29993 c-3 -5 -1 -17 4 -28 6 -17 8 -17 8 -2 1 9 6 17 12 17 5
0 7 5 4 10 -7 12 -22 13 -28 3z"/>
<path d="M17272 29919 c-11 -16 -9 -19 8 -19 11 0 20 6 20 14 0 24 -15 26 -28
5z"/>
<path d="M17320 29910 c0 -5 7 -10 16 -10 8 0 12 5 9 10 -3 6 -10 10 -16 10
-5 0 -9 -4 -9 -10z"/>
<path d="M17268 29834 c-5 -4 -8 -22 -8 -41 0 -29 -3 -33 -26 -33 -26 0 -54
-20 -54 -39 0 -6 -7 -11 -15 -11 -8 0 -15 -7 -15 -15 0 -8 -6 -15 -14 -15 -7
0 -19 -15 -27 -32 -7 -18 -19 -37 -26 -41 -21 -13 -15 -27 12 -27 23 0 25 4
25 40 0 29 4 40 15 40 8 0 15 5 15 10 0 14 28 12 33 -2 2 -8 8 -9 13 -4 5 5 4
11 -3 13 -15 5 -17 33 -3 33 6 0 10 7 10 15 0 9 10 15 26 15 37 0 56 24 52 66
-2 20 -6 32 -10 28z"/>
<path d="M17145 29750 c-3 -5 -1 -10 4 -10 6 0 11 5 11 10 0 6 -2 10 -4 10 -3
0 -8 -4 -11 -10z"/>
<path d="M17075 29669 c-9 -14 -2 -20 14 -10 8 6 9 11 3 15 -6 3 -14 1 -17 -5z"/>
<path d="M17021 29589 c-13 -11 -21 -22 -18 -25 8 -8 47 19 47 33 0 16 0 16
-29 -8z"/>
<path d="M17017 29526 c-15 -23 -16 -26 -2 -26 17 0 29 22 23 41 -2 6 -12 0
-21 -15z"/>
<path d="M16961 29524 c0 -11 3 -14 6 -6 3 7 2 16 -1 19 -3 4 -6 -2 -5 -13z"/>
<path d="M16948 29434 c-5 -4 -8 -22 -8 -41 0 -29 -3 -33 -26 -33 -33 0 -54
-21 -54 -54 0 -22 -5 -26 -29 -26 -16 0 -31 -6 -34 -12 -3 -10 -8 -10 -16 -2
-9 9 -19 9 -37 0 -26 -12 -34 -39 -9 -30 8 4 15 10 15 15 0 15 22 10 36 -8 13
-17 13 -17 14 0 0 12 8 17 26 17 33 0 54 21 54 54 0 21 5 26 26 26 37 0 56 24
52 66 -2 20 -6 32 -10 28z"/>
<path d="M16865 29397 c-4 -10 -5 -21 -1 -24 10 -10 18 4 13 24 -4 17 -4 17
-12 0z"/>
<path d="M16465 29350 c-3 -5 -1 -10 4 -10 6 0 11 5 11 10 0 6 -2 10 -4 10 -3
0 -8 -4 -11 -10z"/>
<path d="M16810 29345 c-20 -24 -7 -38 18 -17 12 11 22 22 22 26 0 12 -28 6
-40 -9z"/>
<path d="M16750 29205 c0 -8 5 -15 10 -15 6 0 10 7 10 15 0 8 -4 15 -10 15 -5
0 -10 -7 -10 -15z"/>
<path d="M16706 29192 c-10 -16 9 -30 21 -17 10 10 9 14 -2 19 -8 3 -16 2 -19
-2z"/>
<path d="M16633 29125 c-6 -14 -8 -25 -4 -25 12 0 31 23 31 37 0 21 -14 15
-27 -12z"/>
<path d="M16682 29120 c-10 -16 -10 -20 1 -20 7 0 13 9 14 20 1 11 1 20 0 20
-1 0 -8 -9 -15 -20z"/>
<path d="M16560 29037 c0 -9 -5 -17 -11 -17 -5 0 -7 -5 -4 -10 4 -6 12 -4 22
6 12 11 13 18 4 27 -8 8 -11 7 -11 -6z"/>
<path d="M16471 28943 c-10 -11 -10 -18 -2 -26 8 -8 11 -7 11 5 0 9 5 18 12
20 7 3 8 7 3 10 -6 3 -16 -1 -24 -9z"/>
<path d="M16548 28954 c-5 -4 -8 -22 -8 -41 0 -29 -3 -33 -26 -33 -33 0 -54
-21 -54 -54 0 -21 -5 -26 -26 -26 -26 0 -54 -20 -54 -39 0 -6 -7 -11 -15 -11
-8 0 -15 -7 -15 -15 0 -8 -5 -15 -11 -15 -17 0 -40 -28 -29 -35 5 -3 10 -1 10
4 0 6 7 11 15 11 8 0 15 5 15 10 0 14 28 12 33 -2 2 -8 8 -9 13 -4 5 5 4 11
-3 13 -15 5 -17 33 -3 33 6 0 10 7 10 15 0 9 10 15 26 15 33 0 54 21 54 54 0
21 5 26 26 26 37 0 56 24 52 66 -2 20 -6 32 -10 28z"/>
<path d="M16420 28870 c0 -5 7 -10 15 -10 8 0 15 5 15 10 0 6 -7 10 -15 10 -8
0 -15 -4 -15 -10z"/>
<path d="M16355 28790 c-3 -5 -1 -10 4 -10 6 0 11 5 11 10 0 6 -2 10 -4 10 -3
0 -8 -4 -11 -10z"/>
<path d="M16275 28710 c-3 -5 -1 -10 4 -10 6 0 11 5 11 10 0 6 -2 10 -4 10 -3
0 -8 -4 -11 -10z"/>
<path d="M16217 28635 c-9 -8 -20 -15 -25 -15 -4 0 -17 -17 -28 -37 -12 -23
-28 -39 -41 -41 -13 -2 -28 -17 -37 -37 -9 -19 -24 -39 -34 -44 -9 -5 -14 -13
-10 -16 4 -4 46 33 94 83 47 50 95 92 107 94 18 3 19 4 5 16 -13 10 -19 10
-31 -3z"/>
<path d="M15795 28630 c-3 -5 1 -10 10 -10 9 0 13 5 10 10 -3 6 -8 10 -10 10
-2 0 -7 -4 -10 -10z"/>
<path d="M16205 28570 c-26 -27 -27 -30 -9 -30 12 0 27 11 34 25 20 37 8 39
-25 5z"/>
<path d="M15715 28550 c-3 -5 -1 -10 4 -10 6 0 11 5 11 10 0 6 -2 10 -4 10 -3
0 -8 -4 -11 -10z"/>
<path d="M16115 28470 c-3 -5 -1 -10 4 -10 6 0 11 5 11 10 0 6 -2 10 -4 10 -3
0 -8 -4 -11 -10z"/>
<path d="M15992 28400 c-6 -11 -8 -21 -3 -25 5 -3 13 4 16 16 9 28 2 33 -13 9z"/>
<path d="M15985 28310 c-3 -5 -1 -10 4 -10 6 0 11 5 11 10 0 6 -2 10 -4 10 -3
0 -8 -4 -11 -10z"/>
<path d="M15877 28274 c-4 -4 -7 -14 -7 -23 0 -11 3 -12 11 -4 6 6 10 16 7 23
-2 6 -7 8 -11 4z"/>
<path d="M15905 28230 c-3 -5 -1 -10 4 -10 6 0 11 5 11 10 0 6 -2 10 -4 10 -3
0 -8 -4 -11 -10z"/>
<path d="M15831 28221 c-8 -5 -9 -11 -3 -15 5 -3 12 1 16 9 6 17 6 18 -13 6z"/>
<path d="M15751 28143 c-18 -20 -6 -29 14 -10 8 9 12 18 8 20 -5 3 -14 -2 -22
-10z"/>
<path d="M15828 28154 c-5 -4 -8 -22 -8 -41 0 -29 -3 -33 -26 -33 -33 0 -54
-21 -54 -54 0 -21 -5 -26 -26 -26 -33 0 -54 -21 -54 -54 0 -21 -5 -26 -26 -26
-33 0 -54 -21 -54 -54 0 -21 -5 -26 -26 -26 -33 0 -54 -21 -54 -54 0 -21 -5
-26 -26 -26 -33 0 -54 -21 -54 -54 0 -21 -5 -26 -26 -26 -33 0 -54 -21 -54
-54 0 -21 -5 -26 -26 -26 -33 0 -54 -21 -54 -54 0 -21 -5 -26 -26 -26 -33 0
-54 -21 -54 -54 0 -21 -5 -26 -26 -26 -33 0 -54 -21 -54 -54 0 -21 -5 -26 -26
-26 -33 0 -54 -21 -54 -54 0 -21 -5 -26 -26 -26 -33 0 -54 -21 -54 -54 0 -22
-5 -26 -28 -26 -36 0 -52 -16 -52 -52 0 -25 -3 -28 -34 -28 -19 0 -38 -4 -41
-10 -10 -16 65 -12 81 4 8 8 14 26 14 40 0 21 5 26 26 26 33 0 54 21 54 54 0
21 5 26 26 26 33 0 54 21 54 54 0 21 5 26 26 26 33 0 54 21 54 54 0 21 5 26
26 26 33 0 54 21 54 54 0 21 5 26 26 26 33 0 54 21 54 54 0 21 5 26 26 26 33
0 54 21 54 54 0 21 5 26 26 26 33 0 54 21 54 54 0 21 5 26 26 26 33 0 54 21
54 54 0 21 5 26 26 26 33 0 54 21 54 54 0 21 5 26 26 26 33 0 54 21 54 54 0
21 5 26 26 26 33 0 54 21 54 54 0 21 5 26 26 26 37 0 56 24 52 66 -2 20 -6 32
-10 28z"/>
<path d="M15670 28060 c-11 -7 -12 -12 -4 -20 8 -8 13 -6 17 9 3 12 4 21 4 21
-1 0 -9 -5 -17 -10z"/>
<path d="M16160 28044 c0 -8 5 -12 10 -9 6 3 10 10 10 16 0 5 -4 9 -10 9 -5 0
-10 -7 -10 -16z"/>
<path d="M15630 28005 c0 -8 5 -15 10 -15 6 0 10 7 10 15 0 8 -4 15 -10 15 -5
0 -10 -7 -10 -15z"/>
<path d="M15585 27957 c-4 -10 -5 -21 -1 -24 10 -10 18 4 13 24 -4 17 -4 17
-12 0z"/>
<path d="M16081 27944 c0 -11 3 -14 6 -6 3 7 2 16 -1 19 -3 4 -6 -2 -5 -13z"/>
<path d="M15535 27910 c-3 -5 3 -10 14 -10 12 0 21 5 21 10 0 6 -6 10 -14 10
-8 0 -18 -4 -21 -10z"/>
<path d="M16000 27884 c0 -8 5 -12 10 -9 6 3 10 10 10 16 0 5 -4 9 -10 9 -5 0
-10 -7 -10 -16z"/>
<path d="M15505 27877 c-4 -10 -5 -21 -1 -24 10 -10 18 4 13 24 -4 17 -4 17
-12 0z"/>
<path d="M15455 27830 c-3 -5 3 -10 14 -10 12 0 21 5 21 10 0 6 -6 10 -14 10
-8 0 -18 -4 -21 -10z"/>
<path d="M15385 27750 c-3 -5 -1 -10 4 -10 6 0 11 5 11 10 0 6 -2 10 -4 10 -3
0 -8 -4 -11 -10z"/>
<path d="M15305 27670 c-3 -5 -1 -10 4 -10 6 0 11 5 11 10 0 6 -2 10 -4 10 -3
0 -8 -4 -11 -10z"/>
<path d="M15225 27590 c-3 -5 -1 -10 4 -10 6 0 11 5 11 10 0 6 -2 10 -4 10 -3
0 -8 -4 -11 -10z"/>
<path d="M15145 27510 c-3 -5 -1 -10 4 -10 6 0 11 5 11 10 0 6 -2 10 -4 10 -3
0 -8 -4 -11 -10z"/>
<path d="M15105 27477 c-4 -10 -5 -21 -1 -24 10 -10 18 4 13 24 -4 17 -4 17
-12 0z"/>
<path d="M15055 27430 c-3 -5 3 -10 14 -10 12 0 21 5 21 10 0 6 -6 10 -14 10
-8 0 -18 -4 -21 -10z"/>
<path d="M15025 27397 c-4 -10 -5 -21 -1 -24 10 -10 18 4 13 24 -4 17 -4 17
-12 0z"/>
<path d="M14975 27350 c-3 -5 3 -10 14 -10 12 0 21 5 21 10 0 6 -6 10 -14 10
-8 0 -18 -4 -21 -10z"/>
<path d="M14946 27311 c-4 -7 -5 -15 -2 -18 9 -9 19 4 14 18 -4 11 -6 11 -12
0z"/>
<path d="M14873 27265 c-8 -9 -9 -16 -3 -20 6 -3 10 -1 10 4 0 6 7 11 16 11 8
0 12 5 9 10 -8 13 -18 12 -32 -5z"/>
<path d="M14797 27186 c-4 -10 -1 -13 8 -9 8 3 12 9 9 14 -7 12 -11 11 -17 -5z"/>
<path d="M14265 27110 c-3 -5 1 -10 10 -10 9 0 13 5 10 10 -3 6 -8 10 -10 10
-2 0 -7 -4 -10 -10z"/>
<path d="M14711 27101 c-8 -5 -9 -11 -3 -15 5 -3 12 1 16 9 6 17 6 18 -13 6z"/>
<path d="M14637 27026 c-4 -10 -1 -13 8 -9 8 3 12 9 9 14 -7 12 -11 11 -17 -5z"/>
<path d="M14705 27030 c-3 -5 -1 -10 4 -10 6 0 11 5 11 10 0 6 -2 10 -4 10 -3
0 -8 -4 -11 -10z"/>
<path d="M14145 26950 c-3 -5 -1 -10 4 -10 6 0 11 5 11 10 0 6 -2 10 -4 10 -3
0 -8 -4 -11 -10z"/>
<path d="M14520 26930 c0 -5 4 -10 9 -10 6 0 13 5 16 10 3 6 -1 10 -9 10 -9 0
-16 -4 -16 -10z"/>
<path d="M15040 26924 c0 -8 5 -12 10 -9 6 3 10 10 10 16 0 5 -4 9 -10 9 -5 0
-10 -7 -10 -16z"/>
<path d="M14462 26871 c-13 -12 -21 -26 -17 -29 7 -8 48 33 44 44 -2 5 -14 -2
-27 -15z"/>
<path d="M14392 26800 c-7 -11 -19 -20 -27 -20 -8 0 -15 -4 -15 -10 0 -17 26
-11 44 9 10 11 16 25 14 31 -1 5 -9 1 -16 -10z"/>
<path d="M14435 26790 c-3 -5 -1 -10 4 -10 6 0 11 5 11 10 0 6 -2 10 -4 10 -3
0 -8 -4 -11 -10z"/>
<path d="M14880 26764 c0 -8 5 -12 10 -9 6 3 10 10 10 16 0 5 -4 9 -10 9 -5 0
-10 -7 -10 -16z"/>
<path d="M14299 26720 c-18 -12 -6 -23 19 -18 16 2 17 5 7 15 -7 6 -18 8 -26
3z"/>
<path d="M14358 26723 c7 -3 16 -2 19 1 4 3 -2 6 -13 5 -11 0 -14 -3 -6 -6z"/>
<path d="M14240 26685 c0 -9 6 -12 15 -9 8 4 15 10 15 15 0 5 -7 9 -15 9 -8 0
-15 -7 -15 -15z"/>
<path d="M14231 26621 c-7 -5 -9 -11 -5 -14 5 -3 15 1 22 9 14 16 5 18 -17 5z"/>
<path d="M13625 26550 c-3 -5 1 -10 10 -10 9 0 13 5 10 10 -3 6 -8 10 -10 10
-2 0 -7 -4 -10 -10z"/>
<path d="M14115 26550 c-3 -5 -1 -10 4 -10 6 0 11 5 11 10 0 6 -2 10 -4 10 -3
0 -8 -4 -11 -10z"/>
<path d="M14153 26544 c-7 -7 -13 -25 -13 -39 0 -20 -5 -25 -26 -25 -33 0 -54
-21 -54 -54 0 -23 -4 -26 -34 -26 -19 0 -38 -4 -41 -10 -10 -16 65 -12 81 4 8
8 14 26 14 40 0 21 5 26 26 26 32 0 54 21 54 53 0 14 5 27 12 29 7 3 8 7 3 10
-6 3 -16 0 -22 -8z"/>
<path d="M14065 26517 c-4 -10 -5 -21 -1 -24 10 -10 18 4 13 24 -4 17 -4 17
-12 0z"/>
<path d="M14015 26470 c-3 -5 3 -10 14 -10 12 0 21 5 21 10 0 6 -6 10 -14 10
-8 0 -18 -4 -21 -10z"/>
<path d="M13985 26450 c3 -5 8 -10 11 -10 2 0 4 5 4 10 0 6 -5 10 -11 10 -5 0
-7 -4 -4 -10z"/>
<path d="M13917 26386 c-4 -10 -1 -13 8 -9 8 3 12 9 9 14 -7 12 -11 11 -17 -5z"/>
<path d="M13816 26304 c-27 -19 -13 -30 14 -11 12 8 18 17 13 20 -4 3 -17 -1
-27 -9z"/>
<path d="M13752 26240 c-11 -17 -10 -20 7 -20 14 0 18 5 14 20 -3 11 -6 20 -7
20 -1 0 -7 -9 -14 -20z"/>
<path d="M13820 26250 c0 -5 5 -10 10 -10 6 0 10 5 10 10 0 6 -4 10 -10 10 -5
0 -10 -4 -10 -10z"/>
<path d="M13680 26205 c0 -9 6 -12 15 -9 8 4 15 10 15 15 0 5 -7 9 -15 9 -8 0
-15 -7 -15 -15z"/>
<path d="M13746 26191 c-4 -7 -5 -15 -2 -18 9 -9 19 4 14 18 -4 11 -6 11 -12
0z"/>
<path d="M13145 26150 c-3 -5 1 -10 10 -10 9 0 13 5 10 10 -3 6 -8 10 -10 10
-2 0 -7 -4 -10 -10z"/>
<path d="M13673 26145 c-8 -9 -9 -16 -3 -20 6 -3 10 -1 10 4 0 6 7 11 16 11 8
0 12 5 9 10 -8 13 -18 12 -32 -5z"/>
<path d="M13593 26064 c-7 -7 -13 -25 -13 -39 0 -22 -4 -25 -34 -25 -19 0 -38
-4 -41 -10 -10 -16 65 -12 81 4 8 8 14 26 14 39 0 14 5 27 12 29 7 3 8 7 3 10
-6 3 -16 0 -22 -8z"/>
<path d="M13457 26009 c-10 -11 -16 -23 -14 -26 6 -6 47 28 47 39 0 14 -15 8
-33 -13z"/>
<path d="M13333 25906 c-26 -12 -30 -26 -9 -26 13 0 43 28 35 33 -2 2 -14 -2
-26 -7z"/>
<path d="M13425 25910 c-3 -5 -1 -10 4 -10 6 0 11 5 11 10 0 6 -2 10 -4 10 -3
0 -8 -4 -11 -10z"/>
<path d="M13259 25840 c-18 -12 -6 -23 19 -18 16 2 17 5 7 15 -7 6 -18 8 -26
3z"/>
<path d="M13318 25843 c7 -3 16 -2 19 1 4 3 -2 6 -13 5 -11 0 -14 -3 -6 -6z"/>
<path d="M13193 25743 c-7 -2 -13 -18 -13 -34 0 -26 -3 -29 -34 -29 -19 0 -38
-4 -41 -10 -10 -16 65 -12 81 4 8 8 14 26 14 39 0 14 6 28 13 30 6 3 8 5 2 5
-5 0 -16 -2 -22 -5z"/>
<path d="M13057 25689 c-10 -11 -16 -23 -14 -26 6 -6 47 28 47 39 0 14 -15 8
-33 -13z"/>
<path d="M13000 25650 c0 -5 4 -10 9 -10 6 0 13 5 16 10 3 6 -1 10 -9 10 -9 0
-16 -4 -16 -10z"/>
<path d="M12952 25600 c-8 -13 -8 -20 -2 -20 6 0 13 7 17 15 9 24 -1 27 -15 5z"/>
<path d="M13030 25612 c0 -7 -6 -12 -14 -12 -8 0 -18 -4 -21 -10 -3 -5 3 -10
13 -10 19 0 38 27 27 38 -3 3 -5 0 -5 -6z"/>
<path d="M12934 25535 c-3 -8 -21 -19 -40 -25 -28 -10 -34 -16 -34 -41 0 -26
-4 -29 -30 -29 -16 0 -30 -4 -30 -10 0 -15 49 -12 66 4 8 8 14 26 14 40 0 24
4 26 40 26 36 0 40 3 40 25 0 27 -17 34 -26 10z"/>
<path d="M12770 25460 c0 -5 7 -10 15 -10 8 0 15 5 15 10 0 6 -7 10 -15 10 -8
0 -15 -4 -15 -10z"/>
<path d="M12717 25426 c-4 -10 0 -12 14 -9 22 6 26 23 5 23 -8 0 -16 -6 -19
-14z"/>
<path d="M12633 25365 c-14 -30 -9 -31 17 -5 23 23 25 30 8 30 -7 0 -18 -11
-25 -25z"/>
<path d="M12145 25350 c-3 -5 -1 -10 4 -10 6 0 11 5 11 10 0 6 -2 10 -4 10 -3
0 -8 -4 -11 -10z"/>
<path d="M12614 25295 c-3 -8 -21 -19 -40 -25 -28 -10 -34 -16 -34 -41 0 -26
-3 -29 -34 -29 -19 0 -38 -4 -41 -10 -10 -16 65 -12 81 4 8 8 14 26 14 40 0
24 4 26 40 26 36 0 40 3 40 25 0 27 -17 34 -26 10z"/>
<path d="M12414 25205 c-10 -14 -25 -25 -33 -25 -11 0 -12 -3 -4 -11 8 -8 19
-3 42 19 17 16 31 32 31 36 0 14 -18 4 -36 -19z"/>
<path d="M12380 25130 c0 -5 5 -10 10 -10 6 0 10 5 10 10 0 6 -4 10 -10 10 -5
0 -10 -4 -10 -10z"/>
<path d="M12305 25110 c-4 -6 3 -10 14 -10 25 0 27 6 6 13 -8 4 -17 2 -20 -3z"/>
<path d="M12233 25023 c-7 -2 -13 -18 -13 -34 0 -26 -4 -29 -30 -29 -16 0 -30
-4 -30 -10 0 -15 49 -12 66 4 8 8 14 26 14 39 0 14 6 28 13 30 6 3 8 5 2 5 -5
0 -16 -2 -22 -5z"/>
<path d="M12060 24945 c-10 -12 -10 -15 4 -15 9 0 16 7 16 15 0 8 -2 15 -4 15
-2 0 -9 -7 -16 -15z"/>
<path d="M12053 24896 c-5 -8 -19 -19 -33 -25 -23 -9 -21 -10 18 -10 38 -1 42
1 42 24 0 28 -14 33 -27 11z"/>
<path d="M11963 24827 c-15 -13 -37 -27 -48 -32 -19 -8 -18 -9 5 -13 13 -2 26
1 28 7 2 6 15 11 28 11 19 0 24 5 24 25 0 31 -2 31 -37 2z"/>
<path d="M11865 24820 c-3 -5 1 -10 9 -10 8 0 18 5 21 10 3 6 -1 10 -9 10 -8
0 -18 -4 -21 -10z"/>
<path d="M11820 24785 c-10 -12 -10 -15 3 -15 19 0 31 16 18 24 -5 3 -14 -1
-21 -9z"/>
<path d="M11798 24723 c7 -3 16 -2 19 1 4 3 -2 6 -13 5 -11 0 -14 -3 -6 -6z"/>
<path d="M11753 24703 c-7 -2 -13 -18 -13 -34 0 -26 -3 -29 -34 -29 -19 0 -38
-4 -41 -10 -10 -16 65 -12 81 4 8 8 14 26 14 39 0 14 6 28 13 30 6 3 8 5 2 5
-5 0 -16 -2 -22 -5z"/>
<path d="M11624 24655 c-4 -8 -12 -15 -19 -15 -7 0 -18 -7 -25 -15 -10 -12
-10 -15 2 -15 16 0 68 41 68 53 0 13 -21 7 -26 -8z"/>
<path d="M11558 24563 c7 -3 16 -2 19 1 4 3 -2 6 -13 5 -11 0 -14 -3 -6 -6z"/>
<path d="M11483 24507 c-15 -13 -37 -27 -48 -32 -19 -8 -18 -9 5 -13 13 -2 26
1 28 7 2 6 15 11 28 11 19 0 24 5 24 25 0 31 -2 31 -37 2z"/>
<path d="M11385 24500 c-3 -5 1 -10 9 -10 8 0 18 5 21 10 3 6 -1 10 -9 10 -8
0 -18 -4 -21 -10z"/>
<path d="M11340 24465 c-10 -12 -10 -15 3 -15 19 0 31 16 18 24 -5 3 -14 -1
-21 -9z"/>
<path d="M11920 24450 c0 -13 50 -13 70 0 11 7 4 10 -27 10 -24 0 -43 -4 -43
-10z"/>
<path d="M11334 24415 c-3 -8 -21 -19 -40 -25 -28 -10 -34 -16 -34 -41 0 -28
-2 -29 -45 -29 -25 0 -45 -4 -45 -10 0 -15 80 -12 96 4 8 8 14 26 14 40 0 24
4 26 40 26 36 0 40 3 40 25 0 27 -17 34 -26 10z"/>
<path d="M11105 24310 c-3 -5 -1 -10 4 -10 6 0 11 5 11 10 0 6 -2 10 -4 10 -3
0 -8 -4 -11 -10z"/>
<path d="M11680 24290 c0 -13 50 -13 70 0 11 7 4 10 -27 10 -24 0 -43 -4 -43
-10z"/>
<path d="M10960 24231 c0 -5 -10 -11 -22 -14 -20 -3 -21 -5 -6 -11 20 -9 55
18 38 29 -5 3 -10 2 -10 -4z"/>
<path d="M11070 24230 c0 -5 11 -10 25 -10 14 0 25 5 25 10 0 6 -11 10 -25 10
-14 0 -25 -4 -25 -10z"/>
<path d="M10940 24170 c0 -5 5 -10 10 -10 6 0 10 5 10 10 0 6 -4 10 -10 10 -5
0 -10 -4 -10 -10z"/>
<path d="M10843 24107 c-15 -13 -37 -27 -48 -32 -20 -8 -20 -8 0 -13 10 -2 21
1 23 7 2 6 17 11 33 11 24 0 29 4 29 25 0 31 -2 31 -37 2z"/>
<path d="M10745 24100 c-3 -5 1 -10 9 -10 8 0 18 5 21 10 3 6 -1 10 -9 10 -8
0 -18 -4 -21 -10z"/>
<path d="M10705 24070 c-3 -5 1 -10 10 -10 9 0 13 5 10 10 -3 6 -8 10 -10 10
-2 0 -7 -4 -10 -10z"/>
<path d="M10693 24016 c-5 -8 -19 -19 -33 -25 -23 -9 -21 -10 18 -10 38 -1 42
1 42 24 0 28 -14 33 -27 11z"/>
<path d="M10560 23991 c0 -5 -10 -11 -22 -14 -22 -3 -22 -4 -4 -12 13 -6 21
-5 24 3 2 7 10 12 18 12 9 0 12 5 9 10 -8 13 -25 13 -25 1z"/>
<path d="M10540 23930 c0 -5 5 -10 10 -10 6 0 10 5 10 10 0 6 -4 10 -10 10 -5
0 -10 -4 -10 -10z"/>
<path d="M11048 23893 c6 -2 18 -2 25 0 6 3 1 5 -13 5 -14 0 -19 -2 -12 -5z"/>
<path d="M10442 23865 c-17 -14 -39 -25 -50 -25 -12 0 -24 -4 -27 -10 -4 -6 8
-10 29 -10 20 0 36 5 36 10 0 6 11 10 25 10 20 0 25 5 25 25 0 14 -2 25 -4 25
-3 0 -18 -11 -34 -25z"/>
<path d="M10295 23830 c-3 -5 1 -10 9 -10 9 0 16 5 16 10 0 6 -4 10 -9 10 -6
0 -13 -4 -16 -10z"/>
<path d="M10210 23780 c0 -5 7 -10 15 -10 8 0 15 5 15 10 0 6 -7 10 -15 10 -8
0 -15 -4 -15 -10z"/>
<path d="M10297 23783 c-22 -6 -18 -37 6 -41 12 -3 17 3 17 22 0 14 -1 25 -2
25 -2 -1 -11 -3 -21 -6z"/>
<path d="M10140 23745 c-13 -16 -8 -18 28 -9 12 4 22 10 22 15 0 15 -37 10
-50 -6z"/>
<path d="M10140 23690 c0 -5 5 -10 10 -10 6 0 10 5 10 10 0 6 -4 10 -10 10 -5
0 -10 -4 -10 -10z"/>
<path d="M9982 23663 c-12 -2 -20 -9 -17 -14 9 -14 32 -11 39 6 3 8 4 14 3 14
-1 -1 -12 -4 -25 -6z"/>
<path d="M10067 23661 c-17 -6 -17 -8 -3 -20 13 -11 16 -11 16 2 0 8 6 18 13
20 6 3 8 5 2 6 -5 0 -18 -4 -28 -8z"/>
<path d="M10648 23653 c6 -2 18 -2 25 0 6 3 1 5 -13 5 -14 0 -19 -2 -12 -5z"/>
<path d="M9980 23614 c0 -10 28 -34 41 -34 8 0 5 7 -6 20 -17 19 -35 26 -35
14z"/>
<path d="M9836 23581 c-3 -4 6 -6 19 -3 14 2 25 6 25 8 0 8 -39 4 -44 -5z"/>
<path d="M9882 23545 c-20 -17 -36 -23 -49 -18 -17 6 -17 6 -1 -10 18 -19 38
-22 38 -7 0 6 11 10 25 10 20 0 25 5 25 25 0 31 -1 31 -38 0z"/>
<path d="M9760 23535 c0 -9 6 -12 15 -9 8 4 15 10 15 15 0 5 -7 9 -15 9 -8 0
-15 -7 -15 -15z"/>
<path d="M9722 23465 c-17 -14 -39 -25 -50 -25 -12 0 -24 -4 -27 -10 -4 -6 7
-10 24 -10 17 0 31 5 31 10 0 6 14 10 30 10 25 0 30 4 30 25 0 14 -2 25 -4 25
-3 0 -18 -11 -34 -25z"/>
<path d="M9585 23430 c-3 -5 -1 -10 4 -10 6 0 11 5 11 10 0 6 -2 10 -4 10 -3
0 -8 -4 -11 -10z"/>
<path d="M10240 23410 c0 -13 50 -13 70 0 11 7 4 10 -27 10 -24 0 -43 -4 -43
-10z"/>
<path d="M9580 23385 c-10 -12 -10 -15 4 -15 9 0 16 7 16 15 0 8 -2 15 -4 15
-2 0 -9 -7 -16 -15z"/>
<path d="M9424 23355 c-18 -15 -18 -15 5 -13 14 2 26 9 29 16 5 17 -10 15 -34
-3z"/>
<path d="M9495 23350 c-3 -5 1 -10 9 -10 9 0 16 5 16 10 0 6 -4 10 -9 10 -6 0
-13 -4 -16 -10z"/>
<path d="M10088 23333 c6 -2 18 -2 25 0 6 3 1 5 -13 5 -14 0 -19 -2 -12 -5z"/>
<path d="M9421 23311 c-10 -6 -10 -10 -1 -16 13 -8 24 -1 19 14 -3 6 -10 7
-18 2z"/>
<path d="M9264 23275 c-18 -15 -18 -15 5 -13 14 2 26 9 29 16 5 17 -10 15 -34
-3z"/>
<path d="M9344 23275 c-17 -13 -17 -14 -1 -15 9 0 17 4 17 9 0 5 10 12 23 14
20 4 20 4 1 6 -11 0 -29 -6 -40 -14z"/>
<path d="M9405 23270 c-3 -5 3 -10 14 -10 12 0 21 5 21 10 0 6 -6 10 -14 10
-8 0 -18 -4 -21 -10z"/>
<path d="M9104 23195 c-18 -15 -18 -15 5 -13 14 2 26 9 29 16 5 17 -10 15 -34
-3z"/>
<path d="M9230 23190 c0 -5 11 -10 25 -10 14 0 25 5 25 10 0 6 -11 10 -25 10
-14 0 -25 -4 -25 -10z"/>
<path d="M9093 23136 c-5 -8 -19 -19 -33 -25 -23 -9 -21 -10 18 -10 38 -1 42
1 42 24 0 28 -14 33 -27 11z"/>
<path d="M8944 23115 c-18 -15 -18 -15 5 -13 14 2 26 9 29 16 5 17 -10 15 -34
-3z"/>
<path d="M8941 23071 c-10 -6 -10 -10 -1 -16 13 -8 24 -1 19 14 -3 6 -10 7
-18 2z"/>
<path d="M8784 23035 c-18 -15 -18 -15 5 -13 14 2 26 9 29 16 5 17 -10 15 -34
-3z"/>
<path d="M8864 23035 c-17 -13 -17 -14 -1 -15 9 0 17 4 17 9 0 5 10 12 23 14
20 4 20 4 1 6 -11 0 -29 -6 -40 -14z"/>
<path d="M8925 23030 c-3 -5 3 -10 14 -10 12 0 21 5 21 10 0 6 -6 10 -14 10
-8 0 -18 -4 -21 -10z"/>
<path d="M8781 22991 c-10 -6 -10 -10 -1 -16 13 -8 24 -1 19 14 -3 6 -10 7
-18 2z"/>
<path d="M8728 22963 c6 -2 18 -2 25 0 6 3 1 5 -13 5 -14 0 -19 -2 -12 -5z"/>
<path d="M8765 22950 c-3 -5 3 -10 14 -10 12 0 21 5 21 10 0 6 -6 10 -14 10
-8 0 -18 -4 -21 -10z"/>
<path d="M8603 22907 c-15 -13 -41 -28 -58 -32 -21 -6 -25 -9 -13 -12 9 -2 26
1 37 6 11 6 31 11 45 11 21 0 26 5 26 25 0 31 -2 31 -37 2z"/>
<path d="M8445 22870 c-3 -5 3 -10 14 -10 12 0 21 5 21 10 0 6 -6 10 -14 10
-8 0 -18 -4 -21 -10z"/>
<path d="M7668 22863 c7 -3 16 -2 19 1 4 3 -2 6 -13 5 -11 0 -14 -3 -6 -6z"/>
<path d="M8441 22824 c-17 -14 -35 -23 -40 -20 -5 4 -12 2 -15 -3 -4 -5 4 -13
16 -17 13 -4 24 -2 26 5 2 6 15 11 28 11 19 0 24 5 24 25 0 31 -1 31 -39 -1z"/>
<path d="M8320 22815 c0 -9 6 -12 15 -9 8 4 15 10 15 15 0 5 -7 9 -15 9 -8 0
-15 -7 -15 -15z"/>
<path d="M8225 22780 c-25 -11 1 -11 35 0 20 6 21 8 5 8 -11 0 -29 -3 -40 -8z"/>
<path d="M8328 22783 c6 -2 18 -2 25 0 6 3 1 5 -13 5 -14 0 -19 -2 -12 -5z"/>
<path d="M8253 22743 c-38 -5 -39 -8 -17 -30 13 -13 19 -14 33 -4 9 6 24 14
34 17 9 4 17 10 17 15 0 9 -7 9 -67 2z"/>
<path d="M8065 22700 c-16 -7 -17 -9 -3 -9 9 -1 20 4 23 9 7 11 7 11 -20 0z"/>
<path d="M7970 22660 c0 -5 7 -10 15 -10 8 0 15 5 15 10 0 6 -7 10 -15 10 -8
0 -15 -4 -15 -10z"/>
<path d="M8053 22656 c-5 -8 -19 -19 -33 -25 -23 -9 -21 -10 18 -10 38 -1 42
1 42 24 0 28 -14 33 -27 11z"/>
<path d="M7920 22630 c0 -5 7 -10 15 -10 8 0 15 5 15 10 0 6 -7 10 -15 10 -8
0 -15 -4 -15 -10z"/>
<path d="M7901 22591 c-10 -6 -10 -10 -1 -16 13 -8 24 -1 19 14 -3 6 -10 7
-18 2z"/>
<path d="M7820 22555 c-25 -14 -25 -14 -2 -15 12 0 22 4 22 9 0 5 10 12 23 14
19 4 19 4 2 5 -11 1 -31 -5 -45 -13z"/>
<path d="M7725 22550 c-3 -5 3 -10 14 -10 12 0 21 5 21 10 0 6 -6 10 -14 10
-8 0 -18 -4 -21 -10z"/>
<path d="M7885 22550 c-3 -5 3 -10 14 -10 12 0 21 5 21 10 0 6 -6 10 -14 10
-8 0 -18 -4 -21 -10z"/>
<path d="M7650 22530 c0 -5 7 -10 15 -10 8 0 15 5 15 10 0 6 -7 10 -15 10 -8
0 -15 -4 -15 -10z"/>
<path d="M8480 22530 c0 -5 6 -10 14 -10 8 0 18 5 21 10 3 6 -3 10 -14 10 -12
0 -21 -4 -21 -10z"/>
<path d="M7722 22505 c-17 -14 -39 -25 -50 -25 -12 0 -24 -5 -28 -11 -5 -9 1
-10 22 -5 16 4 44 10 62 13 26 4 32 10 32 29 0 30 -2 30 -38 -1z"/>
<path d="M7600 22500 c0 -5 7 -10 15 -10 8 0 15 5 15 10 0 6 -7 10 -15 10 -8
0 -15 -4 -15 -10z"/>
<path d="M7513 22463 c9 -2 25 -2 35 0 9 3 1 5 -18 5 -19 0 -27 -2 -17 -5z"/>
<path d="M8320 22450 c0 -13 50 -13 70 0 11 7 4 10 -27 10 -24 0 -43 -4 -43
-10z"/>
<path d="M7487 22409 c-13 -15 -25 -19 -42 -15 -13 3 -27 2 -30 -4 -4 -6 15
-10 49 -10 53 0 56 1 56 25 0 30 -10 32 -33 4z"/>
<path d="M7360 22394 c0 -8 5 -12 10 -9 6 3 10 10 10 16 0 5 -4 9 -10 9 -5 0
-10 -7 -10 -16z"/>
<path d="M7324 22347 c-21 -18 -38 -24 -52 -20 -14 3 -22 1 -22 -7 0 -9 14
-10 53 -5 62 9 60 7 55 36 l-3 22 -31 -26z"/>
<path d="M7200 22335 c0 -9 6 -12 15 -9 8 4 15 10 15 15 0 5 -7 9 -15 9 -8 0
-15 -7 -15 -15z"/>
<path d="M7113 22303 c9 -2 25 -2 35 0 9 3 1 5 -18 5 -19 0 -27 -2 -17 -5z"/>
<path d="M7087 22249 c-13 -15 -25 -19 -42 -15 -13 3 -27 2 -30 -4 -4 -6 15
-10 49 -10 53 0 56 1 56 25 0 30 -10 32 -33 4z"/>
<path d="M6960 22234 c0 -8 5 -12 10 -9 6 3 10 10 10 16 0 5 -4 9 -10 9 -5 0
-10 -7 -10 -16z"/>
<path d="M6858 22213 c7 -3 16 -2 19 1 4 3 -2 6 -13 5 -11 0 -14 -3 -6 -6z"/>
<path d="M7768 22213 c6 -2 18 -2 25 0 6 3 1 5 -13 5 -14 0 -19 -2 -12 -5z"/>
<path d="M6903 22183 c-13 -2 -23 -8 -23 -13 0 -4 -10 -11 -22 -15 -21 -7 -20
-8 10 -12 22 -3 40 1 51 11 10 9 23 16 29 16 7 0 12 5 12 10 0 10 -16 11 -57
3z"/>
<path d="M6560 22095 c0 -9 6 -12 15 -9 8 4 15 10 15 15 0 5 -7 9 -15 9 -8 0
-15 -7 -15 -15z"/>
<path d="M6625 22080 c-3 -5 -1 -10 4 -10 6 0 11 5 11 10 0 6 -2 10 -4 10 -3
0 -8 -4 -11 -10z"/>
<path d="M6488 22063 c6 -2 18 -2 25 0 6 3 1 5 -13 5 -14 0 -19 -2 -12 -5z"/>
<path d="M6568 22063 c6 -2 18 -2 25 0 6 3 1 5 -13 5 -14 0 -19 -2 -12 -5z"/>
<path d="M7360 22050 c0 -5 6 -10 14 -10 8 0 18 5 21 10 3 6 -3 10 -14 10 -12
0 -21 -4 -21 -10z"/>
<path d="M6378 21993 c7 -3 16 -2 19 1 4 3 -2 6 -13 5 -11 0 -14 -3 -6 -6z"/>
<path d="M6265 21943 c-45 -10 -47 -12 -30 -30 14 -13 20 -14 34 -4 9 6 24 14
34 17 9 4 17 10 17 15 0 9 -20 10 -55 2z"/>
<path d="M6080 21914 c0 -8 5 -12 10 -9 6 3 10 10 10 16 0 5 -4 9 -10 9 -5 0
-10 -7 -10 -16z"/>
<path d="M6145 21910 c28 -12 65 -12 65 0 0 6 -19 10 -42 9 -33 0 -38 -2 -23
-9z"/>
<path d="M6968 21893 c6 -2 18 -2 25 0 6 3 1 5 -13 5 -14 0 -19 -2 -12 -5z"/>
<path d="M6025 21863 c-45 -10 -47 -12 -30 -30 14 -13 20 -14 34 -4 9 6 24 14
34 17 9 4 17 10 17 15 0 9 -20 10 -55 2z"/>
<path d="M5840 21834 c0 -8 5 -12 10 -9 6 3 10 10 10 16 0 5 -4 9 -10 9 -5 0
-10 -7 -10 -16z"/>
<path d="M5905 21830 c28 -12 65 -12 65 0 0 6 -19 10 -42 9 -33 0 -38 -2 -23
-9z"/>
<path d="M5785 21783 c-45 -10 -47 -12 -30 -30 14 -13 20 -14 34 -4 9 6 24 14
34 17 9 4 17 10 17 15 0 9 -20 10 -55 2z"/>
<path d="M5665 21750 c28 -12 65 -12 65 0 0 6 -19 10 -42 9 -33 0 -38 -2 -23
-9z"/>
<path d="M5410 21670 c-12 -8 -11 -10 8 -10 12 0 22 5 22 10 0 13 -11 13 -30
0z"/>
<path d="M5288 21663 c6 -2 18 -2 25 0 6 3 1 5 -13 5 -14 0 -19 -2 -12 -5z"/>
<path d="M5095 21620 c-3 -6 5 -10 19 -10 14 0 28 5 31 10 3 6 -5 10 -19 10
-14 0 -28 -4 -31 -10z"/>
<path d="M4978 21583 c12 -2 32 -2 45 0 12 2 2 4 -23 4 -25 0 -35 -2 -22 -4z"/>
<path d="M4960 21550 c0 -5 18 -10 40 -10 22 0 40 5 40 10 0 6 -18 10 -40 10
-22 0 -40 -4 -40 -10z"/>
<path d="M4865 21510 c11 -5 56 -8 100 -8 75 1 77 1 30 8 -71 11 -156 11 -130
0z"/>
<path d="M4728 21503 c6 -2 18 -2 25 0 6 3 1 5 -13 5 -14 0 -19 -2 -12 -5z"/>
<path d="M4618 21493 c7 -3 16 -2 19 1 4 3 -2 6 -13 5 -11 0 -14 -3 -6 -6z"/>
<path d="M4240 21380 c0 -5 4 -10 9 -10 6 0 13 5 16 10 3 6 -1 10 -9 10 -9 0
-16 -4 -16 -10z"/>
<path d="M5280 21330 c0 -5 6 -10 14 -10 8 0 18 5 21 10 3 6 -3 10 -14 10 -12
0 -21 -4 -21 -10z"/>
<path d="M5360 21330 c0 -5 18 -10 40 -10 22 0 40 5 40 10 0 6 -18 10 -40 10
-22 0 -40 -4 -40 -10z"/>
<path d="M4080 21290 c0 -5 18 -10 40 -10 22 0 40 5 40 10 0 6 -18 10 -40 10
-22 0 -40 -4 -40 -10z"/>
<path d="M3378 21183 c12 -2 32 -2 45 0 12 2 2 4 -23 4 -25 0 -35 -2 -22 -4z"/>
<path d="M4800 21170 c0 -5 18 -10 40 -10 22 0 40 5 40 10 0 6 -18 10 -40 10
-22 0 -40 -4 -40 -10z"/>
<path d="M3360 21150 c0 -5 18 -10 40 -10 22 0 40 5 40 10 0 6 -18 10 -40 10
-22 0 -40 -4 -40 -10z"/>
<path d="M2978 21103 c12 -2 32 -2 45 0 12 2 2 4 -23 4 -25 0 -35 -2 -22 -4z"/>
<path d="M3138 21103 c12 -2 32 -2 45 0 12 2 2 4 -23 4 -25 0 -35 -2 -22 -4z"/>
<path d="M3378 21103 c12 -2 32 -2 45 0 12 2 2 4 -23 4 -25 0 -35 -2 -22 -4z"/>
<path d="M2960 21070 c0 -5 18 -10 40 -10 22 0 40 5 40 10 0 6 -18 10 -40 10
-22 0 -40 -4 -40 -10z"/>
<path d="M2978 21023 c12 -2 32 -2 45 0 12 2 2 4 -23 4 -25 0 -35 -2 -22 -4z"/>
<path d="M2320 20954 c-77 -12 -79 -13 -21 -8 35 2 90 4 122 4 33 0 59 4 59
10 0 13 -52 11 -160 -6z"/>
<path d="M2560 20950 c0 -5 18 -10 40 -10 22 0 40 5 40 10 0 6 -18 10 -40 10
-22 0 -40 -4 -40 -10z"/>
<path d="M2000 20910 c0 -5 -19 -10 -42 -10 -23 0 -39 -3 -35 -6 9 -9 157 7
157 17 0 5 -18 9 -40 9 -22 0 -40 -4 -40 -10z"/>
<path d="M2000 20870 l-85 -6 123 -2 c76 -1 122 2 122 8 0 10 -19 10 -160 0z"/>
<path d="M3538 20853 c12 -2 32 -2 45 0 12 2 2 4 -23 4 -25 0 -35 -2 -22 -4z"/>
<path d="M1440 20830 c0 -6 33 -10 80 -10 47 0 80 4 80 10 0 6 -33 10 -80 10
-47 0 -80 -4 -80 -10z"/>
<path d="M1218 20793 c12 -2 32 -2 45 0 12 2 2 4 -23 4 -25 0 -35 -2 -22 -4z"/>
<path d="M818 20783 c12 -2 32 -2 45 0 12 2 2 4 -23 4 -25 0 -35 -2 -22 -4z"/>
<path d="M1058 20783 c12 -2 32 -2 45 0 12 2 2 4 -23 4 -25 0 -35 -2 -22 -4z"/>
<path d="M1478 20783 c23 -2 61 -2 85 0 23 2 4 4 -43 4 -47 0 -66 -2 -42 -4z"/>
<path d="M3040 20770 c0 -11 43 -12 115 0 47 7 45 7 -32 9 -50 0 -83 -3 -83
-9z"/>
<path d="M760 20750 c-41 -6 -42 -7 -10 -8 19 0 58 3 85 8 47 7 48 7 10 7 -22
0 -60 -3 -85 -7z"/>
<path d="M240 20740 c0 -5 18 -10 40 -10 22 0 40 5 40 10 0 6 -18 10 -40 10
-22 0 -40 -4 -40 -10z"/>
<path d="M418 20713 c12 -2 32 -2 45 0 12 2 2 4 -23 4 -25 0 -35 -2 -22 -4z"/>
<path d="M560 20710 c0 -5 18 -10 40 -10 22 0 40 5 40 10 0 6 -18 10 -40 10
-22 0 -40 -4 -40 -10z"/>
<path d="M720 20710 c0 -11 43 -12 115 0 47 7 45 7 -32 9 -50 0 -83 -3 -83 -9z"/>
<path d="M258 20703 c12 -2 32 -2 45 0 12 2 2 4 -23 4 -25 0 -35 -2 -22 -4z"/>
<path d="M2738 20693 c12 -2 32 -2 45 0 12 2 2 4 -23 4 -25 0 -35 -2 -22 -4z"/>
<path d="M2258 20613 c12 -2 32 -2 45 0 12 2 2 4 -23 4 -25 0 -35 -2 -22 -4z"/>
<path d="M1698 20533 c12 -2 32 -2 45 0 12 2 2 4 -23 4 -25 0 -35 -2 -22 -4z"/>
<path d="M920 20440 c-69 -10 -113 -18 -98 -19 15 0 62 4 105 10 43 6 123 15
178 19 l100 7 -80 0 c-44 0 -136 -7 -205 -17z"/>
<path d="M80 20370 c0 -9 228 -3 239 6 2 2 -50 4 -117 4 -75 0 -122 -4 -122
-10z"/>
</g>
</svg>
